<?xml version="1.0" encoding="utf-8"?>
<!-- Generator: Adobe Illustrator 25.2.0, SVG Export Plug-In . SVG Version: 6.00 Build 0)  -->
<svg version="1.1" id="bebda193-fe66-47ab-b56b-14e16348ebfb"
	 xmlns="http://www.w3.org/2000/svg" xmlns:xlink="http://www.w3.org/1999/xlink" x="0px" y="0px" viewBox="0 0 446.7 501.7"
	 style="enable-background:new 0 0 446.7 501.7;" xml:space="preserve">
<style type="text/css">
	.st0{fill:#FCFCFC;}
	.st1{fill:#0B1838;}
	.st2{fill:#FFFFFF;}
	.st3{fill:url(#SVGID_1_);stroke:#1D1D1B;stroke-width:0.5;stroke-miterlimit:10;}
	.st4{fill:#0B1838;enable-background:new    ;}
	.st5{fill:#F3F2F1;}
	.st6{fill:#E52E35;stroke:#FFFFFF;stroke-width:2;stroke-miterlimit:10;}
	.st7{font-family:'Georgia-Bold';}
	.st8{font-size:169.5654px;}
</style>
<g>
	<path class="st0" d="M6.4,70.3c55-46.3,138-67.7,210.7-70.2c79.1-1.4,153.1,19.8,213.1,70.2c24.5,170.1-44.4,341.6-213.2,420.2
		C51,416.3-23.3,236.7,6.4,70.3"/>
	<path class="st1" d="M17.9,71.2C70,24.2,148.4,2.5,217.1,0c74.8-1.4,144.7,20.1,201.5,71.2C441.8,244,386.3,384.7,217,497.9
		C36.1,374.1-10.1,240.2,17.9,71.2"/>
</g>
<path class="st2" d="M110.6,58.6l-1.8,0.5c-0.4-1.4-1.1-2.8-2.1-3.9c-1-1.3-2-2-3-1.8c-0.6,0.1-1.2,0.2-1.7,0.3
	c-0.6,0.2-1.4,0.4-2.2,0.6c-2.2,0.7-3.3,1-5.6,1.7v15.3l3.8-1.2c1-0.3,1.9-0.7,2.7-1.2c0.7-0.5,1.2-1.1,1.6-1.8
	c0.4-0.7,0.7-1.4,0.8-2.1c0.3-0.9,0.4-1.9,0.5-2.8l1.8-0.5v15l-1.8,0.5c-0.1-0.9-0.2-1.7-0.5-2.6c-0.2-0.7-0.5-1.3-0.9-1.9
	c-0.4-0.5-1.1-0.8-1.8-0.8c-0.9,0-1.7,0.1-2.6,0.4c-1.5,0.5-2.3,0.7-3.8,1.2v13.1c0,0.5,0.1,1,0.3,1.5c0.2,0.4,0.6,0.7,1.1,0.8
	c0.5,0.1,1,0.1,1.5,0c0.6,0,1.2-0.1,1.8-0.3v1.9c-5.7,1.8-8.6,2.7-14.3,4.7v-1.9l1.9-0.8c0.5-0.2,1-0.5,1.5-0.8
	c0.4-0.4,0.8-0.8,1-1.4c0.2-0.6,0.3-1.2,0.3-1.8V61.1c0-0.5-0.1-1-0.3-1.5c-0.2-0.4-0.6-0.7-1.1-0.8c-0.6-0.1-1.1-0.1-1.7,0
	c-0.6,0-1.1,0.1-1.7,0.3v-2c10.3-3.6,15.5-5.2,25.9-8L110.6,58.6z"/>
<path class="st2" d="M137.7,69.5c-0.3,4.6-0.4,6.9-0.7,11.5c-10.5,2.1-15.8,3.4-26.2,6.2v-1.9l1.6-0.6c0.5-0.2,1-0.4,1.5-0.7
	c0.4-0.3,0.8-0.8,1-1.3c0.2-0.6,0.3-1.2,0.3-1.8V53.5c0-0.5-0.1-1-0.3-1.5c-0.2-0.4-0.6-0.7-1.1-0.9c-0.5-0.1-1-0.2-1.5-0.2
	c-0.5,0-1.1,0-1.6,0.1V49c5.6-1.5,8.4-2.2,14.1-3.6v1.9c-0.6,0.2-1.2,0.4-1.7,0.7c-0.5,0.2-1,0.5-1.5,0.8c-0.5,0.3-0.9,0.8-1.1,1.4
	c-0.2,0.6-0.3,1.1-0.3,1.7v25.7c0,0.9,0,1.8,0.2,2.7c0.1,0.5,0.3,1,0.7,1.3c0.5,0.3,1.1,0.3,1.6,0.2c1-0.1,2-0.3,3-0.6
	c0.6-0.1,1.2-0.3,1.8-0.5c0.6-0.2,1.2-0.4,1.8-0.6c0.5-0.2,1-0.5,1.5-0.8c0.4-0.2,0.8-0.6,1-0.9c0.9-1.4,1.6-2.8,2.3-4.2
	c0.7-1.4,1.3-2.9,1.8-4.5L137.7,69.5z"/>
<path class="st2" d="M164.5,42.8c1.6,1.7,2.8,3.7,3.5,5.9c0.9,2.6,1.3,5.4,1.3,8.1c0,2.9-0.4,5.7-1.3,8.4c-0.8,2.5-2,4.7-3.6,6.8
	c-1.4,1.9-3.2,3.5-5.2,4.7c-1.9,1.2-4,2-6.3,2.4c-2.2,0.4-4.4,0.3-6.5-0.4c-1.9-0.6-3.7-1.7-5.1-3.2c-1.5-1.6-2.7-3.6-3.4-5.7
	c-0.8-2.5-1.3-5.1-1.2-7.7c0-2.9,0.4-5.8,1.3-8.6c0.8-2.5,2-4.9,3.5-7c1.4-2,3.2-3.7,5.2-5c1.9-1.2,4-2.1,6.2-2.4
	c2.1-0.4,4.3-0.2,6.3,0.5C161.3,40.1,163.1,41.3,164.5,42.8z M160.9,70.4c0.9-1.8,1.6-3.8,1.9-5.8c0.4-2.3,0.6-4.7,0.6-7
	c0-2.4-0.2-4.8-0.7-7.1c-0.3-1.9-1-3.7-1.9-5.3c-0.8-1.3-1.9-2.4-3.3-3.1c-1.4-0.7-3-0.9-4.5-0.6c-1.8,0.3-3.5,1.1-4.9,2.3
	c-1.4,1.3-2.5,2.8-3.3,4.5c-0.8,1.9-1.4,3.9-1.8,5.9c-0.4,2.2-0.6,4.5-0.6,6.8c0,2.3,0.2,4.6,0.6,6.9c0.3,1.8,1,3.6,1.9,5.2
	c0.8,1.3,1.9,2.4,3.2,3.1c1.5,0.7,3.1,0.9,4.7,0.6c1.7-0.3,3.3-1,4.6-2.1C159,73.5,160.2,72,160.9,70.4L160.9,70.4z"/>
<path class="st2" d="M198.3,39.8c1.6,1.8,2.8,3.9,3.5,6.2c0.9,2.6,1.3,5.4,1.3,8.2c0,2.8-0.4,5.6-1.3,8.3c-0.8,2.4-2,4.6-3.6,6.5
	c-1.4,1.7-3.2,3.2-5.2,4.3c-2,1-4.1,1.7-6.3,1.8c-2.2,0.2-4.5-0.1-6.6-1c-2-0.8-3.7-2.1-5.2-3.7c-1.5-1.7-2.7-3.8-3.4-6
	c-0.9-2.5-1.3-5.2-1.2-7.9c0-2.9,0.4-5.7,1.3-8.5c0.8-2.4,2-4.7,3.6-6.7c1.4-1.9,3.2-3.4,5.2-4.6c1.9-1.1,4.1-1.7,6.3-1.9
	c2.2-0.2,4.4,0.2,6.4,1C195.1,36.9,196.9,38.2,198.3,39.8z M194.7,67.1c0.9-1.8,1.6-3.7,1.9-5.6c0.4-2.3,0.6-4.6,0.6-7
	c0-2.4-0.2-4.8-0.7-7.2c-0.4-1.9-1-3.8-2-5.5c-0.8-1.4-1.9-2.6-3.3-3.4c-1.4-0.8-3-1.1-4.6-1c-1.8,0.1-3.5,0.8-4.9,1.9
	c-1.4,1.2-2.5,2.6-3.3,4.3c-0.9,1.8-1.5,3.7-1.8,5.7c-0.4,2.2-0.6,4.5-0.6,6.7c0,2.3,0.2,4.6,0.6,6.9c0.4,1.9,1,3.7,1.9,5.4
	c0.8,1.4,1.9,2.6,3.3,3.4c1.4,0.8,3.1,1.2,4.7,1c1.7-0.1,3.3-0.7,4.6-1.7C192.7,70,193.9,68.7,194.7,67.1L194.7,67.1z"/>
<path class="st2" d="M237.8,73.7c-3.7-0.2-5.5-0.3-9.2-0.4c-2-3.6-3.9-6.8-5.5-9.4c-1.6-2.6-3.4-5.3-5.4-8.1h-3.5v12.1
	c0,0.6,0.1,1.1,0.3,1.7c0.2,0.5,0.6,0.9,1.1,1.1c0.5,0.2,1,0.3,1.5,0.3c0.6,0.1,1.2,0.2,1.8,0.2v1.9c-5.8,0-8.7,0-14.5,0.2v-1.9
	l1.7-0.2c0.5-0.1,1-0.2,1.5-0.4c0.5-0.2,0.8-0.6,1.1-1c0.2-0.5,0.3-1.1,0.3-1.7V40.3c0-0.6-0.1-1.1-0.2-1.7
	c-0.2-0.5-0.6-0.9-1.1-1.1c-0.5-0.2-1-0.3-1.6-0.4c-0.5-0.1-1.1-0.2-1.6-0.2v-1.9c6.3-0.2,9.5-0.2,15.8-0.2c1.4,0,2.7,0.2,4.1,0.6
	c1.2,0.3,2.4,0.9,3.4,1.7c1,0.8,1.8,1.7,2.4,2.9c0.6,1.3,0.9,2.8,0.9,4.2c0,1.3-0.2,2.7-0.6,3.9c-0.4,1.1-1,2.1-1.8,2.9
	c-0.8,0.8-1.6,1.5-2.6,2c-1.1,0.6-2.2,1-3.4,1.4c1.7,2.5,3.1,4.7,4.2,6.4c1.1,1.7,2.5,3.8,4.1,6.3c0.6,0.9,1.2,1.7,1.9,2.5
	c0.5,0.5,1.1,0.9,1.7,1.3c0.5,0.3,1,0.5,1.6,0.6c0.5,0.1,1,0.2,1.6,0.3L237.8,73.7z M225.2,44.7c0.1-2-0.5-4-1.8-5.5
	c-1.3-1.4-3.1-2.2-5-2.1h-4.1v16.4h3.2c2.1,0.1,4.1-0.8,5.5-2.3C224.5,49.4,225.3,47.1,225.2,44.7L225.2,44.7z"/>
<path class="st2" d="M260.5,57.7c1,0.9,1.9,2,2.5,3.2c0.7,1.4,1,3,1,4.6c0.1,1.6-0.3,3.1-1,4.5c-0.6,1.2-1.6,2.2-2.7,3
	c-1.1,0.7-2.3,1.2-3.6,1.5c-1.4,0.3-2.8,0.4-4.2,0.2c-6.5-0.6-9.7-0.8-16.2-1.1v-1.9c0.4,0,1-0.1,1.7-0.1c0.5,0,1.1-0.1,1.6-0.3
	c0.5-0.2,0.8-0.5,1.1-1c0.2-0.5,0.3-1.1,0.3-1.6V41.2c0-0.6-0.1-1.1-0.3-1.6c-0.2-0.5-0.6-0.9-1.1-1.2c-0.5-0.3-1-0.5-1.6-0.7
	c-0.5-0.2-1-0.3-1.5-0.3v-1.9c6.3,0.3,9.5,0.5,15.8,1.1c1.2,0.1,2.4,0.3,3.5,0.7c1.1,0.4,2.2,1,3.2,1.8c1,0.8,1.8,1.7,2.3,2.8
	c0.6,1.2,1,2.6,0.9,4c0,1.2-0.2,2.4-0.6,3.5c-0.4,1-1,1.8-1.8,2.5c-0.8,0.6-1.6,1.2-2.5,1.6c-1,0.4-2,0.7-3.1,0.8v0.2
	c1.1,0.3,2.2,0.7,3.3,1.1C258.4,56.1,259.5,56.8,260.5,57.7z M254.6,51.3c0.6-0.7,1-1.5,1.2-2.4c0.3-1.1,0.4-2.1,0.4-3.2
	c0.1-1.8-0.5-3.6-1.5-5.1c-1.2-1.4-3-2.2-4.9-2.2c-0.5,0-1.2-0.1-1.9-0.1l-1.9-0.1v14.7l3,0.2c1.1,0.1,2.3,0,3.4-0.3
	C253.2,52.6,254.1,52.1,254.6,51.3L254.6,51.3z M258,63.9c0.1-2.1-0.7-4.2-2-5.8c-1.5-1.7-3.6-2.7-5.8-2.7c-1-0.1-1.9-0.1-2.6-0.2
	h-1.6v13.5c0,1,0.4,2,1.2,2.7c1,0.7,2.2,1.1,3.4,1.1c2.4,0.2,4.2-0.4,5.5-1.8C257.3,69.2,258,66.9,258,63.9L258,63.9z"/>
<path class="st2" d="M297.2,81.2c-5.6-1.2-8.4-1.7-14-2.6v-1.9c1,0.1,2.1,0.1,3.1,0c0.8-0.1,1.2-0.4,1.2-0.8c0-0.2,0-0.4,0-0.6
	c0-0.2-0.1-0.4-0.1-0.7c-1.1-3.6-1.7-5.4-2.8-9.1c-4.8-0.8-7.1-1.2-11.9-1.9c-0.4,1.2-0.8,2.2-1.1,3.1s-0.5,1.7-0.8,2.5
	c-0.2,0.6-0.3,1.2-0.4,1.8c-0.1,0.4-0.1,0.8-0.1,1.2c0,0.7,0.5,1.3,1.5,1.9c1.1,0.6,2.2,1,3.4,1.2v1.9c-5.1-0.7-7.7-1.1-12.8-1.7v-2
	c0.5,0,1,0,1.6-0.1c0.5-0.1,1.1-0.2,1.5-0.5c0.6-0.3,1.1-0.8,1.5-1.3c0.4-0.6,0.8-1.3,1-2.1c1.7-4.6,3.6-9.7,5.6-15.4
	c2.1-5.7,3.9-10.7,5.5-15.2l1.9,0.3c3.8,11.6,7.5,23.3,11.3,35c0.2,0.6,0.5,1.3,0.8,1.9c0.4,0.6,0.8,1.1,1.3,1.5
	c0.4,0.4,0.9,0.7,1.4,0.9c0.5,0.2,1,0.4,1.5,0.6L297.2,81.2z M283.6,63.1c-2.1-6.3-3.1-9.4-5.1-15.7c-2,5.6-3,8.4-5.1,14.1
	C277.5,62.1,279.5,62.4,283.6,63.1z"/>
<path class="st2" d="M322.5,75.9c-0.3,4.5-0.4,6.7-0.7,11.2c-10.4-2.8-15.7-4-26.2-6.1V79c0.4,0,1,0.1,1.7,0.1c0.5,0.1,1,0.1,1.5,0
	c0.4-0.1,0.8-0.4,1-0.8c0.2-0.5,0.3-1.1,0.3-1.7V49.3c0-0.6-0.1-1.1-0.3-1.7c-0.2-0.5-0.6-1-1.1-1.4c-0.5-0.4-1-0.7-1.5-1
	c-0.5-0.3-1.1-0.5-1.6-0.7v-1.9c5.7,1.1,8.5,1.8,14.2,3.1v1.9c-0.6-0.1-1.1-0.1-1.7-0.1c-0.5,0-1,0-1.5,0.1
	c-0.5,0.1-0.9,0.4-1.1,0.9c-0.2,0.5-0.3,1.1-0.3,1.6v25.6c0,0.9,0,1.9,0.2,2.8c0.1,0.6,0.3,1.2,0.7,1.7c0.5,0.5,1,0.8,1.6,1
	c1,0.3,2,0.6,3,0.9c0.6,0.1,1.2,0.3,1.8,0.4c0.6,0.1,1.2,0.2,1.8,0.2c0.5,0,1,0,1.5-0.1c0.4,0,0.7-0.2,1-0.5c0.9-1,1.6-2,2.2-3.2
	c0.7-1.1,1.3-2.4,1.8-3.6L322.5,75.9z"/>
<path class="st2" d="M348.5,83.9c-0.3,4.4-0.4,6.7-0.7,11.1c-10.3-3.5-15.4-5.1-25.9-7.9v-1.9l1.6,0.3c0.5,0.1,1,0.1,1.5,0.1
	c0.4-0.1,0.8-0.4,1-0.7c0.2-0.5,0.4-1.1,0.3-1.6V55.8c0-0.6-0.1-1.2-0.3-1.7c-0.2-0.6-0.6-1.1-1.1-1.4c-0.5-0.4-1-0.7-1.5-1.1
	c-0.5-0.3-1-0.6-1.6-0.8v-1.9c5.6,1.5,8.4,2.3,14,4.1v1.9c-0.6-0.1-1.1-0.2-1.7-0.2c-0.5,0-1,0-1.5,0c-0.5,0-0.9,0.3-1.1,0.8
	c-0.2,0.5-0.3,1-0.3,1.6v25.7c0,0.9,0,1.9,0.1,2.8c0.1,0.6,0.3,1.2,0.7,1.7c0.4,0.5,1,0.9,1.6,1.1c1,0.4,2,0.8,3,1.1
	c0.6,0.2,1.2,0.3,1.8,0.5c0.6,0.2,1.2,0.3,1.8,0.3c0.5,0.1,1,0.1,1.5,0c0.4,0,0.7-0.2,1-0.4c0.9-0.9,1.6-1.9,2.2-3
	c0.7-1.1,1.3-2.3,1.8-3.5L348.5,83.9z"/>
<g>
	
		<radialGradient id="SVGID_1_" cx="208.9263" cy="320.6092" r="97.1283" fx="208.9263" fy="252.5315" gradientTransform="matrix(0.9092 -0.3529 0.2791 0.7359 -61.9565 187.6898)" gradientUnits="userSpaceOnUse">
		<stop  offset="0.53" style="stop-color:#FFFFFF"/>
		<stop  offset="0.53" style="stop-color:#E62C32"/>
	</radialGradient>
	<ellipse class="st3" cx="217.5" cy="349.9" rx="47" ry="47.6"/>
	<g>
		<ellipse class="st4" cx="210.8" cy="337.5" rx="7" ry="7.1"/>
		<ellipse transform="matrix(0.9946 -0.1035 0.1035 0.9946 -33.6404 26.9485)" class="st4" cx="242.7" cy="337.5" rx="5.4" ry="7"/>
		
			<ellipse transform="matrix(0.8896 -0.4568 0.4568 0.8896 -121.157 125.3487)" class="st4" cx="198.7" cy="313.3" rx="5.6" ry="3.9"/>
		
			<ellipse transform="matrix(0.2288 -0.9735 0.9735 0.2288 -188.5312 435.6644)" class="st4" cx="180.7" cy="336.8" rx="6.4" ry="3.3"/>
		
			<ellipse transform="matrix(0.6119 -0.7909 0.7909 0.6119 -215.6681 296.3431)" class="st1" cx="194.1" cy="367.9" rx="4.4" ry="6.1"/>
		<ellipse class="st4" cx="227" cy="367.4" rx="5.8" ry="5.9"/>
		
			<ellipse transform="matrix(0.4161 -0.9093 0.9093 0.4161 -185.1048 446.5787)" class="st4" cx="255.2" cy="367.4" rx="5.8" ry="2.8"/>
		
			<ellipse transform="matrix(0.5065 -0.8623 0.8623 0.5065 -151.4371 356.7451)" class="st4" cx="235.9" cy="310.7" rx="2.8" ry="6.2"/>
		
			<ellipse transform="matrix(0.8771 -0.4803 0.4803 0.8771 -158.6152 159.7224)" class="st4" cx="232.8" cy="389.8" rx="4.2" ry="1.2"/>
		
			<ellipse transform="matrix(0.8647 -0.5023 0.5023 0.8647 -130.2366 173.5532)" class="st4" cx="257" cy="328.5" rx="0.9" ry="4.3"/>
	</g>
</g>
<path class="st5" d="M370.4,117.9"/>
<path class="st5" d="M374.2,123.6"/>
<path class="st5" d="M366.8,127.4"/>
<path class="st5" d="M365.6,129.2"/>
<path class="st5" d="M362.3,134.3"/>
<path class="st5" d="M361.1,136"/>
<path class="st5" d="M360.6,137.1"/>
<path class="st5" d="M360.1,138.2C360.1,138.2,360,138.2,360.1,138.2"/>
<path class="st5" d="M358.3,140.5"/>
<path class="st5" d="M372.2,115.6"/>
<g>
	<path class="st5" d="M373.5,113.5c11.3,3.5,22.5,7.7,33.7,11.7c-10.6,2.1-20.8,4-30.8,6c4,11.6,6.4,15.2,8.5,21.7
		c-14.2-3.9-43-14.1-43-14.1l3.8-7l12.1,3.1"/>
	<path class="st5" d="M70.2,115.2c-11.3,3.5-22.5,7.7-33.7,11.7c10.6,2.1,20.8,4,30.8,6c-4,11.6-6.4,15.2-8.5,21.7
		c14.2-3.9,43-14.1,43-14.1l-3.8-7L86,136.6"/>
	<polygon points="102,140.6 98.4,134.2 86.1,137.4 	"/>
	<path class="st2" d="M65.8,110L86,137.4c51.8-14.4,125.6-17.3,133.8-17.3c8.2,0,91.2,0.9,138.1,15.6l19.5-25.9
		c-59.3-18.1-133-19.9-157.6-19.9S138.5,92.8,65.8,110z"/>
	<polyline points="357.9,135.4 341.8,138.9 345.5,132.2 	"/>
</g>
<g>
	<g>
		<path class="st1" d="M95.5,111.3c0.3-0.1,0.5-0.1,0.8-0.1c0.8,1.7,1.2,2.5,2,4.2c-0.4,0.2-0.6,0.3-0.9,0.5c-0.9-1.1-1.9-1.9-3-2.4
			c-1-0.4-1.9-0.5-3-0.3c-0.6,0.1-1.1,0.3-1.6,0.7c-0.4,0.3-0.8,0.7-0.9,1.1c-0.2,0.4-0.2,0.8-0.2,1.1c0.1,0.3,0.2,0.6,0.5,0.9
			c0.2,0.3,0.6,0.5,1,0.6c0.4,0.2,1.1,0.3,2,0.3c1.2,0.1,1.7,0.1,2.9,0.3c0.4,0,0.9,0.1,1.6,0.3c0.7,0.2,1.2,0.3,1.7,0.6
			c0.4,0.2,0.8,0.6,1,1c0.3,0.4,0.5,0.9,0.6,1.4c0.2,1.1-0.1,2.2-0.9,3.3c-0.8,1-2.1,1.7-3.6,2c-0.8,0.2-1.6,0.2-2.3,0.1
			c-0.7-0.1-1.5-0.4-2.3-0.8c-0.1,0.6-0.1,0.9-0.2,1.5c-0.3,0.1-0.4,0.1-0.7,0.1c-0.8-2-1.2-3-2-4.9c0.4-0.2,0.6-0.2,0.9-0.4
			c0.5,0.9,1.2,1.6,1.9,2.1c0.7,0.5,1.5,0.9,2.2,1.1c0.8,0.2,1.5,0.2,2.3,0.1c1-0.2,1.8-0.7,2.4-1.4c0.5-0.6,0.7-1.3,0.6-1.9
			c-0.1-0.6-0.4-1.1-1-1.4c-0.5-0.3-1.4-0.5-2.7-0.6c-1.1-0.1-1.7-0.1-2.8-0.2c-1.5-0.1-2.7-0.4-3.4-1c-0.7-0.5-1.2-1.2-1.4-2
			c-0.1-0.7-0.1-1.3,0.2-1.9c0.3-0.6,0.8-1.2,1.5-1.8c0.7-0.5,1.6-0.9,2.6-1.1c0.8-0.2,1.6-0.2,2.4-0.1c0.6,0.1,1.1,0.3,1.6,0.5
			C95.3,111.9,95.4,111.7,95.5,111.3z"/>
		<path class="st1" d="M101.4,110.1c2.3-0.4,3.5-0.6,5.8-1c1.8-0.3,3-0.4,3.7-0.3c0.9,0.1,1.7,0.4,2.3,1c0.7,0.5,1.1,1.3,1.2,2.3
			c0.1,0.8,0,1.6-0.3,2.3c-0.4,0.8-0.9,1.4-1.6,1.9c-0.7,0.4-1.7,0.8-3.3,1c-1.1,0.2-1.6,0.3-2.7,0.5c0.3,1.5,0.4,2.2,0.7,3.7
			c0.1,0.5,0.2,0.9,0.3,1c0.1,0.2,0.3,0.3,0.4,0.4c0.2,0.1,0.5,0,0.9,0c0.2,0,0.3-0.1,0.5-0.1c0.1,0.3,0.1,0.5,0.2,0.9
			c-2.2,0.4-3.4,0.6-5.6,1c-0.1-0.3-0.1-0.5-0.2-0.9c0.1,0,0.2,0,0.3-0.1c0.5-0.1,0.8-0.2,1-0.3c0.2-0.1,0.3-0.3,0.3-0.4
			c0-0.2,0-0.5-0.1-1c-0.7-3.9-1.1-5.9-1.8-9.8c-0.1-0.5-0.2-0.8-0.3-0.9c-0.1-0.1-0.2-0.2-0.4-0.3c-0.2,0-0.5,0-1,0.1
			c-0.1,0-0.2,0-0.3,0.1C101.5,110.7,101.5,110.5,101.4,110.1z M105.5,110.6c0.4,2.4,0.6,3.6,1.1,6c0.9-0.2,1.4-0.2,2.3-0.4
			c1.1-0.2,1.9-0.4,2.3-0.7c0.4-0.3,0.7-0.7,1-1.2s0.3-1.1,0.2-1.8c-0.1-0.7-0.4-1.3-0.8-1.7c-0.4-0.4-1-0.7-1.6-0.7
			c-0.4,0-1.3,0-2.5,0.3C106.6,110.4,106.2,110.4,105.5,110.6z"/>
		<path class="st1" d="M124.8,106c1.4-0.2,2.6-0.1,3.8,0.4c1.3,0.5,2.3,1.3,3.1,2.3c0.8,1,1.3,2.2,1.5,3.7c0.3,2.2-0.1,4.1-1.3,5.7
			c-1.2,1.6-2.9,2.5-5,2.9c-2.4,0.4-4.4-0.2-6.1-1.6c-1.4-1.2-2.2-2.7-2.5-4.6c-0.2-1.4-0.1-2.7,0.4-4c0.5-1.2,1.3-2.3,2.4-3.1
			S123.3,106.2,124.8,106z M125,107.1c-1.1,0.2-2,0.6-2.7,1.2c-0.7,0.6-1.2,1.4-1.6,2.5s-0.4,2.2-0.2,3.6c0.2,1.3,0.6,2.4,1.2,3.3
			s1.3,1.5,2.2,1.9s1.8,0.5,2.7,0.3c1-0.1,1.8-0.5,2.5-1.1s1.2-1.4,1.5-2.6s0.4-2.3,0.2-3.6c-0.2-1.3-0.6-2.4-1.2-3.5
			c-0.6-0.9-1.2-1.5-2-1.8C126.9,107.1,126,107,125,107.1z"/>
		<path class="st1" d="M135.7,104.8c3.1-0.4,4.6-0.6,7.7-1c1.5-0.2,2.6-0.2,3.3,0.1c0.8,0.2,1.4,0.6,1.9,1.1
			c0.5,0.5,0.7,1.1,0.8,1.9c0.1,0.8,0,1.4-0.4,2.1c-0.3,0.6-0.8,1.2-1.5,1.6c-0.7,0.4-1.6,0.7-2.8,0.9c1.8,1.7,2.7,2.5,4.4,4.2
			c0.4,0.4,0.6,0.6,0.7,0.6c0.3,0.2,0.5,0.3,0.8,0.4c0.3,0.1,0.6,0.1,0.9,0.1c0.1,0,0.2,0,0.3,0c0,0.3,0.1,0.5,0.1,0.9
			c-1.3,0.1-2,0.2-3.3,0.4c-2.5-2.5-3.7-3.8-6.2-6.3c-0.8,0.1-1.1,0.1-1.9,0.2c0.2,1.8,0.3,2.7,0.6,4.5c0.1,0.5,0.1,0.8,0.2,0.9
			c0.1,0.2,0.3,0.4,0.4,0.5c0.2,0.1,0.5,0.1,1,0c0.2,0,0.2,0,0.4,0c0,0.3,0.1,0.5,0.1,0.9c-2.2,0.3-3.3,0.4-5.6,0.7
			c0-0.3-0.1-0.5-0.1-0.9c0.2,0,0.3,0,0.5-0.1c0.4,0,0.6-0.1,0.7-0.2c0.1-0.1,0.2-0.2,0.3-0.3c0.1-0.1,0.1-0.3,0.2-0.5
			c0-0.1,0-0.4-0.1-1.1c-0.5-3.8-0.7-5.7-1.2-9.5c-0.1-0.4-0.1-0.7-0.2-0.9c-0.1-0.2-0.2-0.3-0.4-0.3c-0.2-0.1-0.4-0.1-0.8,0
			c-0.2,0-0.4,0-0.6,0.1C135.7,105.3,135.7,105.1,135.7,104.8z M139.7,105.4c0.3,2.2,0.4,3.3,0.7,5.4c1.2-0.2,1.8-0.2,3-0.4
			c1-0.1,1.7-0.3,2.1-0.4c0.6-0.2,1-0.6,1.3-1.1c0.3-0.5,0.4-1.1,0.3-1.8c-0.1-0.6-0.2-1.1-0.5-1.4c-0.3-0.4-0.7-0.6-1.1-0.8
			c-0.5-0.1-1.1-0.2-2-0.1C142,105.1,141.2,105.2,139.7,105.4z"/>
		<path class="st1" d="M153.8,102.1c0.3,0,0.4,0,0.7-0.1c0.1,0.2,0.1,0.3,0.2,0.5c3.6-0.4,5.5-0.6,9.1-0.9c0-0.2,0-0.3,0-0.5
			c0.3,0,0.5,0,0.8-0.1c0.8,1.6,1.2,2.5,1.9,4.1c-0.4,0.2-0.6,0.2-0.9,0.4c-0.6-1.1-1.2-1.8-1.8-2.3c-0.7-0.4-1.5-0.6-2.5-0.5
			c-0.4,0-0.7,0.1-0.7,0.1c-0.1,0-0.1,0.1-0.1,0.2c0,0.1,0,0.3,0,0.7c0.4,4,0.6,6,1,10.1c0,0.5,0.1,0.8,0.2,1
			c0.1,0.2,0.2,0.3,0.3,0.4c0.1,0.1,0.2,0.1,0.4,0.2c0.2,0,0.6,0,1.2,0c0,0.3,0,0.5,0.1,0.9c-2.2,0.2-3.4,0.3-5.6,0.5
			c0-0.3-0.1-0.5-0.1-0.9c0.6-0.1,1-0.1,1.1-0.2c0.2-0.1,0.4-0.2,0.5-0.4c0.1-0.2,0.1-0.6,0.1-1.1c-0.4-4.1-0.6-6.2-1-10.3
			c0-0.3-0.1-0.5-0.1-0.6s-0.1-0.1-0.2-0.1c-0.1,0-0.3,0-0.6,0c-0.8,0.1-1.4,0.2-1.8,0.5c-0.4,0.2-0.8,0.6-1.2,1.1
			c-0.4,0.5-0.6,1.1-0.9,1.9c-0.4-0.1-0.6-0.1-1-0.2C153.2,104.8,153.4,103.9,153.8,102.1z"/>
		<path class="st1" d="M189.4,99.8c0.3,0,0.5,0,0.8,0c0.6,1.9,1,2.9,1.6,4.8c-0.4,0.1-0.6,0.2-1,0.3c-0.6-1.1-1-1.8-1.3-2.2
			c-0.5-0.6-1.1-1.1-1.8-1.4c-0.7-0.3-1.5-0.5-2.3-0.4c-1,0.1-1.8,0.4-2.6,0.9c-0.8,0.6-1.4,1.3-1.8,2.3c-0.4,1-0.6,2.1-0.5,3.3
			c0.1,1.3,0.4,2.4,1,3.3c0.6,0.9,1.3,1.7,2.2,2.1c0.9,0.5,1.8,0.7,2.8,0.6c0.9-0.1,1.9-0.4,2.8-1c0.9-0.6,1.7-1.4,2.4-2.4
			c0.3,0.2,0.5,0.3,0.9,0.5c-0.4,0.7-0.8,1.2-1.3,1.7c-0.8,0.8-1.6,1.3-2.4,1.7c-0.8,0.4-1.8,0.6-2.8,0.7c-2.3,0.1-4.2-0.6-5.7-2.2
			c-1.3-1.3-2-2.9-2.1-4.8c-0.1-1.4,0.1-2.7,0.7-3.9c0.6-1.2,1.4-2.2,2.5-2.9c1.1-0.7,2.4-1.2,3.7-1.2c0.7,0,1.4,0,2,0.2
			s1.3,0.4,1.9,0.8C189.3,100.4,189.3,100.2,189.4,99.8z"/>
		<path class="st1" d="M195.2,99.5c2.3-0.1,3.5-0.1,5.8-0.2c0,0.4,0,0.5,0,0.9c-0.2,0-0.3,0-0.5,0c-0.4,0-0.7,0.1-0.9,0.1
			c-0.2,0.1-0.3,0.2-0.4,0.4c-0.1,0.2-0.1,0.4-0.1,0.8c0.2,4.1,0.2,6.1,0.4,10.2c0,0.5,0,0.7,0.1,0.8c0,0.1,0.1,0.2,0.3,0.3
			c0.1,0,0.4,0,0.9,0c0.3,0,0.5,0,0.8,0c0.9,0,1.7-0.2,2.3-0.5c0.7-0.3,1.2-0.7,1.7-1.2c0.5-0.5,0.9-1.3,1.3-2.3
			c0.4,0.1,0.6,0.2,0.9,0.3c-0.6,1.8-0.9,2.8-1.5,4.6c-4.2,0.1-6.3,0.2-10.5,0.4c0-0.4,0-0.5,0-0.9c0.2,0,0.3,0,0.5,0
			c0.4,0,0.7-0.1,0.9-0.2c0.2-0.1,0.3-0.2,0.3-0.4c0.1-0.2,0.1-0.5,0.1-0.9c-0.2-4-0.2-5.9-0.4-9.9c0-0.5-0.1-0.8-0.2-1
			c-0.1-0.2-0.2-0.3-0.4-0.4c-0.2-0.1-0.5-0.1-1-0.1c-0.2,0-0.3,0-0.5,0C195.2,100,195.2,99.9,195.2,99.5z"/>
		<path class="st1" d="M209.8,99c2.3-0.1,3.5-0.1,5.8-0.1c0,0.4,0,0.5,0,0.9c-0.2,0-0.2,0-0.4,0c-0.5,0-0.8,0.1-1,0.2
			c-0.2,0.1-0.3,0.2-0.3,0.4c-0.1,0.2-0.1,0.5-0.1,1c0,2.6,0.1,3.9,0.1,6.6c0,1.2,0.2,2,0.5,2.6c0.3,0.6,0.8,1,1.4,1.4
			c0.7,0.4,1.4,0.6,2.2,0.5c0.8,0,1.5-0.2,2.3-0.6c0.7-0.4,1.2-0.9,1.5-1.5c0.3-0.6,0.4-1.5,0.4-2.7c0-2.5,0-3.8,0-6.3
			c0-0.5-0.1-0.8-0.1-1c-0.1-0.2-0.2-0.4-0.4-0.4c-0.2-0.1-0.5-0.1-0.9-0.1c-0.2,0-0.2,0-0.4,0c0-0.4,0-0.5,0-0.9c2,0,3,0,5,0
			c0,0.4,0,0.5,0,0.9c-0.1,0-0.2,0-0.3,0c-0.6,0-0.9,0.1-1.2,0.3c-0.2,0.2-0.3,0.6-0.3,1.2c0,2.7,0,4,0,6.7c0,1.2-0.2,2.2-0.7,3.1
			c-0.5,0.8-1.1,1.5-2,2c-0.9,0.5-1.9,0.7-3.1,0.7c-1.1,0-2.1-0.2-3-0.7c-0.9-0.5-1.6-1.1-2.1-1.8c-0.4-0.7-0.7-1.6-0.7-2.7
			c-0.1-2.9-0.1-4.3-0.1-7.1c0-0.5-0.1-0.8-0.1-1c-0.1-0.2-0.2-0.3-0.4-0.4c-0.2-0.1-0.5-0.1-0.9-0.1c-0.2,0-0.3,0-0.5,0
			C209.8,99.6,209.8,99.4,209.8,99z"/>
		<path class="st1" d="M228.9,98.8c2.8,0,4.3,0,7.1,0.1c1.7,0,2.9,0.1,3.6,0.3c0.9,0.2,1.7,0.7,2.2,1.3c0.5,0.6,0.8,1.3,0.8,2.1
			c0,0.6-0.2,1.1-0.5,1.6c-0.3,0.5-0.7,0.9-1.3,1.2c-0.4,0.2-0.8,0.4-1.5,0.5c0.8,0.2,1.3,0.3,1.7,0.5c0.6,0.3,1.1,0.7,1.4,1.3
			c0.3,0.6,0.5,1.2,0.5,1.9c0,0.7-0.2,1.3-0.6,1.8c-0.4,0.6-0.9,1-1.5,1.4c-0.6,0.3-1.4,0.6-2.2,0.6c-0.8,0.1-1.7,0.1-2.6,0.1
			c-2.9,0-4.4-0.1-7.3-0.1c0-0.4,0-0.5,0-0.9c0.2,0,0.3,0,0.5,0c0.5,0,0.8-0.1,1-0.2c0.3-0.2,0.4-0.5,0.4-1c0-4,0-6.1,0.1-10.1
			c0-0.5,0-0.8-0.1-1c-0.1-0.2-0.2-0.3-0.3-0.4c-0.2-0.1-0.5-0.1-0.9-0.1c-0.2,0-0.3,0-0.5,0C228.9,99.4,228.9,99.2,228.9,98.8z
			 M232.8,100c0,2.1,0,3.2-0.1,5.3c1.1,0,1.6,0,2.7,0c1.3,0,2.1,0,2.6-0.1c0.7-0.2,1.3-0.5,1.7-0.9c0.4-0.4,0.6-1,0.6-1.7
			c0-0.6-0.2-1.1-0.5-1.5c-0.3-0.4-0.8-0.7-1.4-0.8c-0.4-0.1-1.2-0.2-2.4-0.2C234.7,100.1,234.1,100.1,232.8,100z M232.7,106.4
			c0,1.9,0,2.9,0,4.8c0,0.5,0,0.8,0.1,0.9c0.1,0.1,0.2,0.2,0.3,0.3c0.1,0,0.5,0.1,1,0.1c0.6,0,0.9,0,1.4,0c1.4,0,2.4,0,3-0.2
			c0.6-0.1,1.1-0.5,1.6-1c0.4-0.5,0.7-1.1,0.7-1.8c0-0.6-0.1-1.1-0.5-1.6c-0.3-0.5-0.8-0.8-1.4-1c-0.6-0.2-1.7-0.3-3.3-0.4
			C234.4,106.4,233.8,106.4,232.7,106.4z"/>
		<path class="st1" d="M255.5,99.5c2.3,0.1,3.4,0.2,5.7,0.3c0,0.4,0,0.5,0,0.9c-0.2,0-0.3,0-0.4,0c-0.4,0-0.7,0-0.9,0.1
			c-0.2,0.1-0.3,0.3-0.4,0.5c-0.1,0.2-0.2,0.6-0.2,1.2c-0.2,3.8-0.3,5.6-0.5,9.4c0,0.5,0,0.8,0.1,1c0.1,0.2,0.2,0.4,0.4,0.5
			c0.2,0.1,0.5,0.2,0.9,0.2c0.2,0,0.3,0,0.4,0c0,0.4,0,0.5,0,0.9c-2.2-0.1-3.4-0.2-5.6-0.3c0-0.4,0-0.5,0-0.9c0.2,0,0.3,0,0.5,0
			c0.4,0,0.7,0,0.9-0.1c0.2-0.1,0.3-0.2,0.4-0.4c0.1-0.2,0.1-0.5,0.2-1c0.2-3.8,0.3-5.8,0.4-9.6c0-0.5,0-0.9-0.1-1.1
			c-0.1-0.2-0.2-0.3-0.4-0.4c-0.2-0.1-0.5-0.2-0.9-0.2c-0.2,0-0.3,0-0.5,0C255.5,100,255.5,99.8,255.5,99.5z"/>
		<path class="st1" d="M265.5,99.5c0.3,0,0.4,0,0.7,0c0,0.2,0,0.3,0.1,0.5c3.7,0.2,5.5,0.3,9.1,0.6c0-0.2,0.1-0.3,0.1-0.5
			c0.3,0,0.5,0,0.8,0.1c0.5,1.8,0.8,2.6,1.2,4.4c-0.4,0.1-0.6,0.2-1,0.3c-0.4-1.2-0.9-2-1.5-2.5c-0.6-0.5-1.4-0.8-2.4-0.9
			c-0.4,0-0.7,0-0.7,0c-0.1,0-0.1,0.1-0.2,0.2c0,0.1-0.1,0.3-0.1,0.7c-0.3,4-0.4,6.1-0.7,10.1c0,0.5,0,0.8,0,1
			c0,0.2,0.1,0.3,0.2,0.4c0.1,0.1,0.2,0.2,0.4,0.2c0.2,0,0.5,0.1,1.1,0.1c0,0.4,0,0.5-0.1,0.9c-2.2-0.2-3.4-0.2-5.6-0.4
			c0-0.4,0-0.5,0.1-0.9c0.6,0,1,0,1.1,0c0.2-0.1,0.4-0.2,0.5-0.4c0.1-0.2,0.2-0.5,0.2-1.1c0.3-4.1,0.4-6.2,0.7-10.3
			c0-0.3,0-0.5,0-0.6c0-0.1-0.1-0.1-0.2-0.2c-0.1,0-0.3-0.1-0.5-0.1c-0.8,0-1.4,0-1.9,0.2c-0.5,0.2-0.9,0.5-1.4,0.9
			c-0.4,0.4-0.8,1-1.2,1.8c-0.4-0.2-0.6-0.2-0.9-0.4C264.4,102,264.8,101.2,265.5,99.5z"/>
		<path class="st1" d="M282.8,101.2c4.1,0.3,6.2,0.5,10.4,0.9c0,0.4-0.1,0.5-0.1,0.9c-4.4,4.6-6.5,7-10.8,11.6
			c1.4,0.1,2.1,0.2,3.5,0.3c1.6,0.1,2.8,0,3.7-0.5c0.9-0.5,1.7-1.4,2.5-2.7c0.4,0.2,0.6,0.3,0.9,0.4c-0.9,1.7-1.3,2.6-2.1,4.3
			c-4.5-0.4-6.8-0.6-11.3-1c0-0.3,0-0.5,0.1-0.9c4.2-4.7,6.4-7.1,10.7-11.7c-1.2-0.1-1.9-0.2-3.1-0.3c-1-0.1-1.9-0.1-2.5,0.1
			c-0.6,0.1-1.2,0.4-1.7,0.8c-0.5,0.4-1,1-1.6,1.8c-0.4-0.2-0.5-0.3-0.9-0.5C281.6,103.4,282,102.7,282.8,101.2z"/>
		<path class="st1" d="M297,102.5c4.8,0.5,7.2,0.8,12.1,1.4c0.4,1.6,0.6,2.4,0.9,4c-0.4,0.1-0.6,0.1-1,0.2c-0.2-0.7-0.4-1.2-0.6-1.6
			c-0.2-0.4-0.5-0.7-0.9-1c-0.4-0.3-0.7-0.5-1.1-0.6c-0.4-0.1-1.1-0.3-2.1-0.4c-1.4-0.2-2.2-0.2-3.6-0.4c-0.2,2.1-0.3,3.2-0.6,5.3
			c0.7,0.1,1.1,0.1,1.8,0.2c0.7,0.1,1.2,0,1.5-0.2c0.4-0.2,0.6-0.4,0.8-0.7c0.1-0.2,0.2-0.6,0.3-1.2c0-0.1,0-0.1,0-0.2
			c0.4,0,0.6,0.1,1,0.1c-0.3,2.5-0.4,3.8-0.7,6.3c-0.4,0-0.6-0.1-1-0.1c0-0.2,0-0.3,0.1-0.5c0.1-0.5,0.1-0.8,0-1.1
			c0-0.2-0.2-0.4-0.3-0.7c-0.2-0.2-0.4-0.4-0.6-0.5c-0.2-0.1-0.6-0.2-1.2-0.2c-0.7-0.1-1.1-0.1-1.8-0.2c-0.2,1.9-0.3,2.8-0.5,4.7
			c-0.1,0.5-0.1,0.8,0,0.9c0,0.1,0.1,0.2,0.2,0.3c0.1,0.1,0.4,0.1,0.8,0.2c0.9,0.1,1.3,0.1,2.2,0.2c1.2,0.1,2.2,0.1,2.9-0.1
			c0.7-0.2,1.4-0.6,2-1.1c0.5-0.4,0.9-1,1.4-1.8c0.4,0.2,0.5,0.3,0.9,0.4c-0.9,1.7-1.3,2.6-2.2,4.3c-4.9-0.6-7.4-0.9-12.3-1.4
			c0-0.3,0.1-0.5,0.1-0.9c0.2,0,0.3,0,0.4,0c0.5,0.1,0.8,0.1,0.9,0c0.2-0.1,0.3-0.2,0.5-0.4c0.1-0.1,0.2-0.4,0.2-0.9
			c0.4-4,0.6-6,1.1-10c0-0.5,0-0.8,0-0.9s-0.2-0.3-0.4-0.4c-0.1-0.1-0.5-0.1-1.3-0.2C297,103.1,297,102.9,297,102.5z"/>
		<path class="st1" d="M314.4,104.5c2.3,0.3,3.4,0.4,5.7,0.8c0,0.3-0.1,0.5-0.1,0.9c-0.2,0-0.2,0-0.4-0.1c-0.5-0.1-0.8-0.1-1,0
			c-0.2,0.1-0.4,0.2-0.5,0.4c-0.1,0.1-0.2,0.5-0.2,1c-0.2,1.6-0.3,2.4-0.5,4c3,0.4,4.6,0.6,7.6,1.1c0.2-1.6,0.3-2.3,0.6-3.9
			c0.1-0.5,0.1-0.9,0.1-1c0-0.2-0.1-0.4-0.3-0.6c-0.2-0.1-0.4-0.2-0.8-0.3c-0.2,0-0.3-0.1-0.6-0.1c0-0.3,0.1-0.5,0.1-0.9
			c2.3,0.3,3.4,0.5,5.7,0.8c-0.1,0.3-0.1,0.5-0.1,0.9c-0.2,0-0.3,0-0.5-0.1c-0.4-0.1-0.7-0.1-0.9,0c-0.2,0.1-0.3,0.2-0.4,0.3
			c-0.1,0.1-0.2,0.5-0.2,0.9c-0.6,3.9-0.9,5.9-1.5,9.8c-0.1,0.5-0.1,0.9-0.1,1.1c0,0.2,0.2,0.3,0.4,0.4c0.1,0.1,0.5,0.1,1.2,0.3
			c-0.1,0.3-0.1,0.5-0.1,0.9c-2.2-0.3-3.3-0.5-5.5-0.8c0-0.3,0.1-0.5,0.1-0.9c0.2,0,0.2,0,0.4,0.1c0.5,0.1,0.9,0.1,1,0
			c0.2,0,0.3-0.1,0.4-0.3c0.1-0.1,0.1-0.5,0.2-1.1c0.3-1.8,0.4-2.7,0.7-4.5c-3-0.4-4.6-0.7-7.6-1.1c-0.2,1.8-0.4,2.8-0.6,4.6
			c-0.1,0.5-0.1,0.9,0,1.1c0.1,0.2,0.2,0.3,0.4,0.4c0.1,0.1,0.6,0.1,1.3,0.2c0,0.3-0.1,0.5-0.1,0.9c-2.2-0.3-3.4-0.5-5.6-0.7
			c0-0.3,0.1-0.5,0.1-0.9c0.1,0,0.2,0,0.4,0c0.5,0.1,0.9,0.1,1,0c0.1,0,0.3-0.1,0.4-0.3c0.1-0.2,0.2-0.4,0.2-0.9
			c0.5-4,0.8-6,1.3-9.9c0.1-0.5,0.1-0.8,0-1c-0.1-0.2-0.2-0.3-0.3-0.4s-0.4-0.2-0.8-0.2c-0.2,0-0.4,0-0.6-0.1
			C314.3,105.1,314.3,104.9,314.4,104.5z"/>
		<path class="st1" d="M341,108.3c1.3,0.2,2.5,0.8,3.5,1.6c1.1,0.9,1.8,1.9,2.2,3.1c0.4,1.2,0.5,2.5,0.3,3.9c-0.4,2.2-1.4,3.9-3,5
			c-1.6,1.1-3.5,1.5-5.7,1.2c-2.4-0.4-4.1-1.5-5.3-3.5c-0.9-1.6-1.2-3.3-0.9-5.2c0.2-1.4,0.7-2.6,1.6-3.7c0.8-1,1.9-1.8,3.2-2.2
			C338.2,108.1,339.5,108,341,108.3z M340.8,109.4c-1.1-0.2-2.1-0.1-3,0.3c-0.9,0.4-1.6,1-2.3,1.9c-0.6,0.9-1.1,2-1.3,3.4
			c-0.2,1.3-0.2,2.5,0.1,3.5c0.3,1,0.8,1.8,1.5,2.4c0.7,0.6,1.5,1,2.5,1.2c1,0.2,1.9,0.1,2.7-0.3c0.8-0.4,1.6-1,2.2-2
			c0.7-1,1.1-2.1,1.3-3.3c0.2-1.3,0.2-2.5-0.1-3.7c-0.3-1-0.7-1.8-1.3-2.3C342.7,109.9,341.8,109.6,340.8,109.4z"/>
		<path class="st1" d="M351.7,110.4c4.8,0.9,7.2,1.4,12,2.3c0.2,1.6,0.4,2.4,0.6,4c-0.4,0.1-0.6,0.1-1,0.1c-0.1-0.7-0.3-1.2-0.5-1.6
			c-0.2-0.4-0.5-0.8-0.8-1.1c-0.3-0.3-0.7-0.6-1.1-0.7c-0.4-0.2-1.1-0.3-2.1-0.5c-1.4-0.3-2.1-0.4-3.6-0.7c-0.4,2.1-0.6,3.1-1,5.2
			c0.7,0.1,1.1,0.2,1.8,0.3c0.6,0.1,1.2,0.1,1.5,0c0.4-0.2,0.7-0.4,0.8-0.7c0.1-0.2,0.3-0.6,0.4-1.2c0-0.1,0-0.1,0-0.2
			c0.4,0.1,0.6,0.1,1,0.2c-0.5,2.5-0.7,3.8-1.2,6.3c-0.4-0.1-0.6-0.1-1-0.2c0-0.2,0.1-0.3,0.1-0.5c0.1-0.5,0.1-0.8,0.1-1.1
			c0-0.2-0.1-0.5-0.3-0.7c-0.2-0.2-0.3-0.4-0.6-0.5c-0.2-0.1-0.6-0.2-1.1-0.3c-0.7-0.1-1.1-0.2-1.8-0.3c-0.4,1.9-0.5,2.8-0.9,4.6
			c-0.1,0.5-0.1,0.8-0.1,0.9c0,0.1,0.1,0.2,0.2,0.3c0.1,0.1,0.4,0.1,0.8,0.2c0.9,0.2,1.3,0.3,2.2,0.4c1.2,0.2,2.2,0.3,2.9,0.1
			c0.7-0.2,1.4-0.5,2.1-1c0.5-0.4,1-1,1.6-1.7c0.4,0.2,0.5,0.3,0.9,0.5c-1,1.7-1.5,2.5-2.5,4.1c-4.9-1-7.3-1.5-12.2-2.4
			c0.1-0.3,0.1-0.5,0.2-0.9c0.2,0,0.2,0,0.4,0.1c0.5,0.1,0.8,0.1,0.9,0.1c0.2-0.1,0.4-0.2,0.5-0.4c0.1-0.1,0.2-0.4,0.3-0.9
			c0.7-3.9,1.1-5.9,1.9-9.9c0.1-0.4,0.1-0.8,0-0.9s-0.2-0.3-0.4-0.4c-0.1-0.1-0.5-0.2-1.2-0.3C351.6,110.9,351.7,110.8,351.7,110.4z
			"/>
	</g>
	<g>
	</g>
</g>
<text transform="matrix(0.9706 0 0 1 69.1885 279.8881)" class="st6 st7 st8">SCI</text>
<polygon class="st2" points="235.8,466.8 217.3,457.2 198.9,467.2 202.2,446.4 187.1,431.8 207.7,428.5 216.8,409.5 226.2,428.3 
	246.9,431.2 232.1,446 "/>
<polygon class="st2" points="178,435.9 163.7,428.1 149.6,436.2 152.1,419.4 140.5,407.7 156.4,405.1 163.3,389.8 170.6,405 
	186.5,407.2 175.1,419.2 "/>
<polygon class="st2" points="283.5,435.9 269.2,428.1 255,436.2 257.6,419.4 245.9,407.7 261.8,405.1 268.8,389.8 276,405 
	292,407.2 280.6,419.2 "/>
<polygon class="st2" points="134.8,395.7 124.4,389.9 114.1,395.9 116,383.4 107.5,374.7 119,372.8 124.1,361.4 129.4,372.6 
	140.9,374.3 132.7,383.3 "/>
<polygon class="st2" points="319.6,395.7 309.2,389.9 298.9,395.9 300.8,383.4 292.3,374.7 303.9,372.8 308.9,361.4 314.2,372.6 
	325.8,374.3 317.5,383.3 "/>
<polygon class="st2" points="106,361.3 97.7,357.2 89.5,361.5 91,352.5 84.3,346.3 93.5,344.9 97.5,336.7 101.7,344.8 110.9,346 
	104.3,352.4 "/>
<polygon class="st2" points="343.6,361.3 335.3,357.2 327.2,361.5 328.6,352.5 321.9,346.3 331.1,344.9 335.1,336.7 339.3,344.8 
	348.6,346 342,352.4 "/>
<polygon class="st2" points="88.2,329.8 81,326.3 73.8,330 75.1,322.3 69.3,317 77.3,315.8 80.8,308.9 84.4,315.7 92.5,316.8 
	86.7,322.2 "/>
<polygon class="st2" points="360.8,329.8 353.6,326.3 346.5,330 347.7,322.3 341.9,317 349.9,315.8 353.4,308.9 357.1,315.7 
	365.1,316.8 359.3,322.2 "/>
</svg>
