<svg id="bebda193-fe66-47ab-b56b-14e16348ebfb" data-name="Ebene 1" xmlns="http://www.w3.org/2000/svg" xmlns:xlink="http://www.w3.org/1999/xlink" viewBox="0 0 446.66436 501.71002">
  <defs>
    <clipPath id="ee905cd4-0f9f-485e-ad5c-edcf881a5507" transform="translate(-54.83119 -33.52)">
      <path d="M280.75,399.85,124.67,152.25c49.23-14.85,102.37-22.52,156.08-22.52,54,0,107.39,7.75,156.83,22.75Z" style="fill: none"/>
    </clipPath>
    <radialGradient id="b9a217a0-d13f-4295-8ed1-bdc9916704c0" data-name="Unbenannter Verlauf" cx="293.9834" cy="114.73995" fy="46.66230125207174" r="97.12831" gradientTransform="matrix(-0.93364, 0.35821, 0.28657, 0.74691, 469.02284, 166.84129)" gradientUnits="userSpaceOnUse">
      <stop offset="0.53" stop-color="#fff"/>
      <stop offset="0.53" stop-color="#e62c32"/>
    </radialGradient>
    <radialGradient id="b1038931-7ddc-4b9e-87c7-1c53882690e8" data-name="Unbenannter Verlauf 2" cx="291.43154" cy="139.24864" r="6.92" gradientTransform="matrix(1.04, 0, 0, -1.04, -87.00119, 495.93658)" gradientUnits="userSpaceOnUse">
      <stop offset="0.97" stop-color="#191d37"/>
      <stop offset="1" stop-color="#1d1d1b"/>
    </radialGradient>
    <radialGradient id="bf0690fa-859e-4d86-80f7-774b3991ceed" data-name="Unbenannter Verlauf 6" cx="230.66697" cy="133.70597" r="2.85" gradientTransform="matrix(0.89, -0.46, -3.29, -6.41, 493.11989, 1369.91302)" gradientUnits="userSpaceOnUse">
      <stop offset="0.64" stop-color="#191d37" stop-opacity="0.3"/>
      <stop offset="0.64" stop-color="#191d37" stop-opacity="0.7"/>
    </radialGradient>
  </defs>
  <path d="M486.85,217.21c0,123.1-56,229.32-134.06,271.06h0c-22.79,12.18-47.45,18.86-73.15,18.86a152.94025,152.94025,0,0,1-67.79-16.1C130.97,451.39,72.34,343.13,72.34,217.21v-1.87l207.24,1.87Z" transform="translate(-54.83119 -33.52)" style="fill: #fff"/>
  <path d="M279.26,234.84,59.99,106.68c54-46.3,134.47-73.16,219.27-73.16s165.17,26.82,219.15,73.06Z" transform="translate(-54.83119 -33.52)" style="fill: #fff"/>
  <path d="M385.2,250.54l116.27-72a422.59258,422.59258,0,0,1-9.62,94.42c-25.49,118.88-94.6,206.57-153.1,194.26s-85.68-120.26-60.2-239.12c11.05-51.53,30.79-99.5,55.65-135.25Z" transform="translate(-54.83119 -33.52)" style="fill: #fff"/>
  <path d="M171.32,245.45,54.85,172.66a429.00037,429.00037,0,0,0,9.79,95.23c25.68,119.83,95,208.3,153.46,196s85.51-121,59.82-240.87c-11.13-52-31-100.32-55.88-136.38Z" transform="translate(-54.83119 -33.52)" style="fill: #fff"/>
  <polygon points="143.019 153.724 122.196 218.978 0.059 142.491 5.409 73.16 143.019 153.724" style="fill: #fff"/>
  <polygon points="446.639 148.834 320.86 224.756 298.002 155.915 443.329 73.07 446.639 148.834" style="fill: #fff"/>
  <polygon points="434.739 145.016 313.499 240.926 273.169 148.916 431.849 73.056 434.739 145.016" style="fill: #0b1838"/>
  <path d="M361.88942,480.10891,279.59515,535.23l-76.39927-51.921a166.46364,166.46364,0,0,0,76.39927,18.94758C308.476,502.25661,336.23435,494.4487,361.88942,480.10891Z" transform="translate(-54.83119 -33.52)" style="fill: #0b1838"/>
  <path d="M475.78092,217.21c0,123.1-52.81924,229.32-126.4455,271.06h0c-21.49555,12.18-44.75489,18.86-68.99513,18.86a137.61013,137.61013,0,0,1-63.93959-16.1C140.11461,451.39,84.81475,343.13,84.81475,217.21v-1.87l195.469,1.87Z" transform="translate(-54.83119 -33.52)" style="fill: #0b1838"/>
  <path d="M279.98187,234.84,73.16622,106.68c50.93284-46.3,126.83221-73.16,206.81565-73.16s155.78849,26.82,206.70245,73.06Z" transform="translate(-54.83119 -33.52)" style="fill: #0b1838"/>
  <path d="M379.90457,250.54l109.666-72a447.125,447.125,0,0,1-9.07359,94.42c-24.04218,118.88-89.22681,206.57-144.40405,194.26S255.27944,346.96,279.3122,228.1c10.42236-51.53,29.04116-99.5,52.48912-135.25Z" transform="translate(-54.83119 -33.52)" style="fill: #0b1838"/>
  <path d="M178.17277,245.45,68.31817,172.66a453.89291,453.89291,0,0,0,9.23393,95.23c24.2214,119.83,89.60409,208.3,144.7436,196s80.65311-121,56.42228-240.87c-10.49783-52-29.23922-100.32-52.70607-136.38Z" transform="translate(-54.83119 -33.52)" style="fill: #0b1838"/>
  <polygon points="183.619 140.926 126.839 248.756 13.489 139.136 18.339 73.156 183.619 140.926" style="fill: #0b1838"/>
  <g style="clip-path: url(#ee905cd4-0f9f-485e-ad5c-edcf881a5507)">
    <path d="M439.06,185.01v-33c-104.21-31.36-212.38-31.36-316.6-.05V184.9c15.19-4.58,30.43-8.59,45.9-12.13a555.62968,555.62968,0,0,1,224.86.07C408.68,176.41,423.85,180.43,439.06,185.01Z" transform="translate(-54.83119 -33.52)" style="fill: #fff"/>
  </g>
  <polygon points="111.679 334.45 104.069 330.45 96.459 334.46 97.909 325.98 91.749 319.97 100.259 318.73 104.059 311.01 107.869 318.73 116.379 319.96 110.229 325.97 111.679 334.45" style="fill: #fff;stroke: #1d1d1b;stroke-miterlimit: 10;stroke-width: 0.5px"/>
  <polygon points="127.719 368.38 119.689 363.96 111.659 368.39 113.189 359 106.699 352.36 115.669 350.98 119.679 342.44 123.699 350.98 132.669 352.34 126.179 359 127.719 368.38" style="fill: #fff;stroke: #1d1d1b;stroke-miterlimit: 10;stroke-width: 0.5px"/>
  <polygon points="340.389 368.38 332.359 363.96 324.339 368.39 325.869 359 319.369 352.36 328.339 350.98 332.349 342.44 336.369 350.98 345.339 352.34 338.849 359 340.389 368.38" style="fill: #fff;stroke: #1d1d1b;stroke-miterlimit: 10;stroke-width: 0.5px"/>
  <polygon points="242.139 469.76 226.689 460.94 211.239 469.77 214.179 451.08 201.679 437.85 218.949 435.12 226.669 418.11 234.399 435.11 251.669 437.83 239.179 451.07 242.139 469.76" style="fill: #fff;stroke: #1d1d1b;stroke-miterlimit: 10;stroke-width: 0.5px"/>
  <polygon points="288.119 442.11 275.749 435.17 263.389 442.13 265.749 427.41 255.739 416.99 269.559 414.83 275.729 401.44 281.919 414.83 295.739 416.97 285.749 427.4 288.119 442.11" style="fill: #fff;stroke: #1d1d1b;stroke-miterlimit: 10;stroke-width: 0.5px"/>
  <polygon points="189.059 442.11 176.699 435.17 164.339 442.13 166.699 427.41 156.689 416.99 170.509 414.83 176.679 401.44 182.869 414.83 196.689 416.97 186.699 427.4 189.059 442.11" style="fill: #fff;stroke: #1d1d1b;stroke-miterlimit: 10;stroke-width: 0.5px"/>
  <polygon points="152.229 406.45 142.859 401.15 133.489 406.46 135.279 395.23 127.699 387.29 138.169 385.65 142.849 375.44 147.539 385.64 158.009 387.28 150.439 395.23 152.229 406.45" style="fill: #fff;stroke: #1d1d1b;stroke-miterlimit: 10;stroke-width: 0.5px"/>
  <polygon points="318.399 406.45 309.029 401.15 299.659 406.46 301.449 395.23 293.859 387.29 304.339 385.65 309.019 375.44 313.709 385.64 324.179 387.28 316.609 395.23 318.399 406.45" style="fill: #fff;stroke: #1d1d1b;stroke-miterlimit: 10;stroke-width: 0.5px"/>
  <circle cx="227.42882" cy="357.85" r="48.28" style="stroke: #1d1d1b;stroke-miterlimit: 10;stroke-width: 0.5px;fill: url(#b9a217a0-d13f-4295-8ed1-bdc9916704c0)"/>
  <circle cx="215.75881" cy="350.66" r="7.19" style="opacity: 0.3100000023841858;isolation: isolate;fill: url(#b1038931-7ddc-4b9e-87c7-1c53882690e8)"/>
  <ellipse cx="305.85574" cy="382.5043" rx="5.5" ry="7.07999" transform="translate(-94.47363 1.87009) rotate(-6.22)" style="fill: #191d37;opacity: 0.30000001192092896;isolation: isolate"/>
  <ellipse cx="263.39672" cy="356.77665" rx="5.76001" ry="3.92999" transform="translate(-186.1387 121.07857) rotate(-26.44)" style="fill: #191d37;opacity: 0.3199999928474426;isolation: isolate"/>
  <ellipse cx="242.76496" cy="381.43383" rx="6.48999" ry="3.34" transform="translate(-239.58204 495.07643) rotate(-76.52)" style="fill: #191d37;opacity: 0.28999999165534973;isolation: isolate"/>
  <ellipse cx="254.47653" cy="411.69767" rx="4.5" ry="6.22" transform="translate(-282.5254 336.16988) rotate(-53.3)" style="fill: url(#bf0690fa-859e-4d86-80f7-774b3991ceed)"/>
  <circle cx="235.26882" cy="379.46001" r="5.97" style="fill: #191d37;opacity: 0.699999988079071;isolation: isolate"/>
  <ellipse cx="297.93044" cy="429.55749" rx="4.32999" ry="2.45001" transform="translate(-168.58709 73.86279) rotate(-17.21)" style="fill: #191d37;opacity: 0.6899999976158142;isolation: isolate"/>
  <ellipse cx="318.72372" cy="407.88736" rx="5.87" ry="2.82001" transform="translate(-240.45709 490.93655) rotate(-65.01)" style="fill: #191d37;opacity: 0.699999988079071;isolation: isolate"/>
  <ellipse cx="324.32082" cy="376.31057" rx="2.70999" ry="3.73999" transform="translate(-108.5836 20.52628) rotate(-8.8)" style="fill: #191d37;opacity: 0.699999988079071;isolation: isolate"/>
  <ellipse cx="302.90396" cy="356.01344" rx="2.79999" ry="6.35001" transform="translate(-211.69589 406.80925) rotate(-60)" style="fill: #191d37;opacity: 0.28999999165534973;isolation: isolate"/>
  <polygon points="355.809 333.77 348.189 329.77 340.589 333.78 342.039 325.29 335.879 319.29 344.379 318.04 348.189 310.32 351.989 318.04 360.499 319.28 354.349 325.29 355.809 333.77" style="fill: #fff;stroke: #1d1d1b;stroke-miterlimit: 10;stroke-width: 0.5px"/>
  <text transform="translate(72.05881 284.43002)" style="isolation: isolate;font-size: 169px;fill: #e62d33;font-family: Georgia-Bold, Georgia;font-weight: 700">SCI</text>
  <text transform="translate(72.05881 284.43002)" style="isolation: isolate;font-size: 169px;fill: none;stroke: #fff;stroke-miterlimit: 10;stroke-width: 2px;font-family: Georgia-Bold, Georgia;font-weight: 700">SCI</text>
  <path d="M168.4,93.03l-1.8.49a10.75,10.75,0,0,0-2.11-4c-1.07-1.35-2.1-2-3.06-1.84a17.06887,17.06887,0,0,0-1.77.35q-1,.24-2.31.63c-2.28.68-3.42,1-5.7,1.75v15.55l3.91-1.21a9.40969,9.40969,0,0,0,2.76-1.25,6.72,6.72,0,0,0,1.69-1.79,8.15949,8.15949,0,0,0,.87-2.13,14.37887,14.37887,0,0,0,.52-2.87l1.8-.52v15.26l-1.8.52a11.76994,11.76994,0,0,0-.49-2.6,5.38,5.38,0,0,0-.9-1.95,2.48,2.48,0,0,0-1.82-.84,7.87007,7.87007,0,0,0-2.63.42c-1.56.47-2.35.71-3.91,1.21v13.34a3.42985,3.42985,0,0,0,.31,1.52,1.58,1.58,0,0,0,1.1.8,7.089,7.089,0,0,0,1.56,0,12.00014,12.00014,0,0,0,1.82-.26v1.94c-5.9,1.78-8.83,2.73-14.67,4.72v-1.94l1.9-.82a7.18017,7.18017,0,0,0,1.55-.83,3.5,3.5,0,0,0,1-1.4,4.64014,4.64014,0,0,0,.32-1.79v-28a3.74982,3.74982,0,0,0-.26-1.51,1.37,1.37,0,0,0-1.09-.77,6.24042,6.24042,0,0,0-1.73,0,10.729,10.729,0,0,0-1.72.26v-2c10.57-3.61,15.9-5.24,26.63-8.13Z" transform="translate(-54.83119 -33.52)" style="fill: #fff"/>
  <path d="M196.21,104.1c-.3,4.68-.44,7-.74,11.69-10.81,2.15-16.2,3.41-26.89,6.29v-1.94l1.67-.64a7.22,7.22,0,0,0,1.54-.76,3.22,3.22,0,0,0,1.05-1.31,4.79,4.79,0,0,0,.32-1.83V87.81a3.82,3.82,0,0,0-.28-1.56,1.61,1.61,0,0,0-1.09-.87,6.64042,6.64042,0,0,0-1.56-.23,7.51091,7.51091,0,0,0-1.65.07V83.28c5.77-1.56,8.67-2.28,14.49-3.62V81.6a11.45009,11.45009,0,0,0-1.76.68,16,16,0,0,0-1.57.81,2.65992,2.65992,0,0,0-1.12,1.39,5.41,5.41,0,0,0-.31,1.77v26.06a18.99816,18.99816,0,0,0,.16,2.77,2,2,0,0,0,.74,1.36,2.61985,2.61985,0,0,0,1.66.25,29.00037,29.00037,0,0,0,3.09-.57c.6-.14,1.23-.3,1.87-.48a16.048,16.048,0,0,0,1.85-.63,11.00136,11.00136,0,0,0,1.57-.79,3.45,3.45,0,0,0,1.06-.95,34.56989,34.56989,0,0,0,2.33-4.3,38.84118,38.84118,0,0,0,1.84-4.52Z" transform="translate(-54.83119 -33.52)" style="fill: #fff"/>
  <path d="M223.75,76.96a16.57974,16.57974,0,0,1,3.62,6,24.21,24.21,0,0,1,1.31,8.23,26.70061,26.70061,0,0,1-1.33,8.55,23,23,0,0,1-3.69,6.88,20.34021,20.34021,0,0,1-5.31,4.77,17.3703,17.3703,0,0,1-6.43,2.39,14.47,14.47,0,0,1-6.7-.4,12.6,12.6,0,0,1-5.27-3.27,15.74016,15.74016,0,0,1-3.46-5.78,23.27022,23.27022,0,0,1-1.25-7.86,27.6401,27.6401,0,0,1,1.31-8.69,25.26025,25.26025,0,0,1,3.64-7.11,19.99986,19.99986,0,0,1,5.34-5.07,16.57978,16.57978,0,0,1,6.39-2.48,13.56,13.56,0,0,1,6.52.47A12.88993,12.88993,0,0,1,223.75,76.96Zm-3.66,28a21.94,21.94,0,0,0,2-5.9,37.32075,37.32075,0,0,0,.63-7.11,34.13953,34.13953,0,0,0-.7-7.24,16.99995,16.99995,0,0,0-2-5.41,8.3999,8.3999,0,0,0-3.39-3.14,7.67,7.67,0,0,0-4.66-.59,9.45,9.45,0,0,0-5,2.33,14.26,14.26,0,0,0-3.36,4.6,24.45977,24.45977,0,0,0-1.82,6,38.82035,38.82035,0,0,0-.6,6.89,34.82961,34.82961,0,0,0,.64,7,16.43984,16.43984,0,0,0,2,5.27,8.30007,8.30007,0,0,0,3.33,3.18,7.86,7.86,0,0,0,4.81.57,10.15017,10.15017,0,0,0,4.73-2.09,12.86005,12.86005,0,0,0,3.39-4.36Z" transform="translate(-54.83119 -33.52)" style="fill: #fff"/>
  <path d="M258.43,73.96a18.70007,18.70007,0,0,1,3.64,6.32,25.15969,25.15969,0,0,1,1.31,8.34,25.45024,25.45024,0,0,1-1.34,8.44,20.21946,20.21946,0,0,1-3.71,6.57,17.86987,17.86987,0,0,1-5.34,4.33,16.49959,16.49959,0,0,1-6.47,1.85,15,15,0,0,1-6.76-1,14.33991,14.33991,0,0,1-5.31-3.71,17.67,17.67,0,0,1-3.49-6.07,23.93987,23.93987,0,0,1-1.27-8,26.15993,26.15993,0,0,1,1.33-8.59,22.78975,22.78975,0,0,1,3.67-6.8,18.00022,18.00022,0,0,1,5.39-4.62,15.51,15.51,0,0,1,6.44-1.94,14.25,14.25,0,0,1,6.57,1A14.61,14.61,0,0,1,258.43,73.96Zm-3.69,27.69a20.65944,20.65944,0,0,0,2-5.73,36.40932,36.40932,0,0,0,.63-7.06,35.0606,35.0606,0,0,0-.7-7.3,18.14989,18.14989,0,0,0-2.07-5.58,9.38994,9.38994,0,0,0-3.41-3.42,8.0599,8.0599,0,0,0-4.69-1,8.77,8.77,0,0,0-5,1.9,12.75,12.75,0,0,0-3.38,4.33,21.89916,21.89916,0,0,0-1.84,5.81,38.00082,38.00082,0,0,0-.6,6.84,34.82955,34.82955,0,0,0,.64,7,17.5198,17.5198,0,0,0,2,5.44,9.32,9.32,0,0,0,3.36,3.46,8.1499,8.1499,0,0,0,4.84,1,9.2499,9.2499,0,0,0,4.76-1.69,11.28011,11.28011,0,0,0,3.46006-4.03Z" transform="translate(-54.83119 -33.52)" style="fill: #fff"/>
  <path d="M299.04,108.28c-3.78-.19-5.67-.27-9.45-.38q-3.14-5.53-5.67-9.54t-5.51-8.22h-3.59v12.31a4.85032,4.85032,0,0,0,.27,1.68,2,2,0,0,0,1.16,1.1,7.09028,7.09028,0,0,0,1.56.35,18.12837,18.12837,0,0,0,1.88.2v1.94c-5.94,0-8.91,0-14.85.18v-1.94l1.72-.24a5.61985,5.61985,0,0,0,1.57-.39,2.31,2.31,0,0,0,1.08-1.06,4.09009,4.09009,0,0,0,.33-1.76V74.45a5.47,5.47,0,0,0-.24-1.69,1.85,1.85,0,0,0-1.17-1.09,8.84934,8.84934,0,0,0-1.6-.42,12.87048,12.87048,0,0,0-1.69-.21V69.1c6.49-.19,9.73-.23,16.21-.17a16.56021,16.56021,0,0,1,4.19.57,10.76992,10.76992,0,0,1,3.54,1.71,8.27007,8.27007,0,0,1,2.45,2.93,9.32,9.32,0,0,1,.91,4.28,11.62038,11.62038,0,0,1-.62,4,8.0903,8.0903,0,0,1-1.83,2.92,10.85,10.85,0,0,1-2.67,2,19.46022,19.46022,0,0,1-3.44,1.4c1.73,2.56,3.17,4.73,4.32,6.49s2.55,3.9,4.22,6.44a13.75,13.75,0,0,0,2,2.5,11.18976,11.18976,0,0,0,1.75,1.34,5.4005,5.4005,0,0,0,1.6.62,11.38984,11.38984,0,0,0,1.61.3Zm-13-29.39a8.21994,8.21994,0,0,0-1.83-5.61,6.55006,6.55006,0,0,0-5.18-2.12h-4.2V87.79h3.24a7.52,7.52,0,0,0,5.69-2.36,8.99992,8.99992,0,0,0,2.27-6.54Z" transform="translate(-54.83119 -33.52)" style="fill: #fff"/>
  <path d="M322.3,92.08a10.83,10.83,0,0,1,2.54,3.29,10.05972,10.05972,0,0,1,1,4.63,9.14976,9.14976,0,0,1-1.06,4.58,8.30988,8.30988,0,0,1-2.76,3,10.9997,10.9997,0,0,1-3.73,1.53,14.37963,14.37963,0,0,1-4.31.25c-6.63-.58-9.95-.81-16.6-1.13v-1.97c.4,0,1-.07,1.73-.15a5.47983,5.47983,0,0,0,1.63-.33,2.17007,2.17007,0,0,0,1.09-1,3.65,3.65,0,0,0,.32-1.64V75.29a4.55,4.55,0,0,0-.28-1.66,2.55983,2.55983,0,0,0-1.13-1.21,7.27978,7.27978,0,0,0-1.65-.72,11.319,11.319,0,0,0-1.54-.35V69.41c6.48.31,9.72.53,16.19,1.1a15.79013,15.79013,0,0,1,3.59.74,11.22,11.22,0,0,1,3.26,1.78,8.67013,8.67013,0,0,1,2.39,2.85,8.47,8.47,0,0,1,.94,4.1,8.88994,8.88994,0,0,1-.66,3.57,6.99988,6.99988,0,0,1-1.88,2.55,9.81987,9.81987,0,0,1-2.6,1.58,13.67,13.67,0,0,1-3.17.86v.24a18.06033,18.06033,0,0,1,3.37,1.16A12.63,12.63,0,0,1,322.3,92.08Zm-6-6.46a6.29,6.29,0,0,0,1.27-2.46,13.00085,13.00085,0,0,0,.36-3.28,8,8,0,0,0-1.58-5.17,6.7,6.7,0,0,0-5-2.26c-.53,0-1.19-.09-2-.12l-2-.08V87.18l3.12.24a9.35017,9.35017,0,0,0,3.46-.29,4.77,4.77,0,0,0,2.41-1.51Zm3.43,12.72a8.68006,8.68006,0,0,0-2.09-5.86,8.36005,8.36005,0,0,0-6-2.75c-1.05-.09-1.94-.15-2.66-.18h-1.63v13.67a3.21,3.21,0,0,0,1.25,2.69,6.57994,6.57994,0,0,0,3.51,1.16c2.45.2,4.33-.41,5.63-1.87s2.03-3.77,2.03-6.86Z" transform="translate(-54.83119 -33.52)" style="fill: #fff"/>
  <path d="M360,115.96c-5.75-1.17-8.63-1.69-14.41-2.65v-1.94a13.77945,13.77945,0,0,0,3.17,0c.84-.13,1.26-.39,1.26-.79a5.13433,5.13433,0,0,0-.05-.61,3.04952,3.04952,0,0,0-.15-.66c-1.15-3.68-1.72-5.52-2.87-9.19-4.88-.83-7.33-1.2-12.22-1.88-.46,1.21-.84,2.27-1.12,3.18s-.56,1.75-.78,2.52a16.23575,16.23575,0,0,0-.44,1.86,6.55785,6.55785,0,0,0-.13,1.18c0,.73.52,1.37,1.55,1.91a13.16957,13.16957,0,0,0,3.49,1.2v1.94c-5.25-.76-7.88-1.1-13.14-1.69v-2a8.35961,8.35961,0,0,0,1.6-.13,4.08986,4.08986,0,0,0,1.57-.51,5.4,5.4,0,0,0,1.53-1.35,9.65959,9.65959,0,0,0,1.06-2.1q2.63-7,5.8-15.63t5.65-15.38l2,.31q5.82,17.73,11.57,35.49a8.77954,8.77954,0,0,0,.83,1.88,7.88017,7.88017,0,0,0,1.3,1.54,7.08952,7.08952,0,0,0,1.46.93,8.15811,8.15811,0,0,0,1.51.58Zm-13.95-18.4c-2.11-6.38-3.16-9.56-5.27-15.91-2.08,5.71-3.12,8.57-5.2,14.3C339.77,96.54,341.85,96.86,346.05,97.56Z" transform="translate(-54.83119 -33.52)" style="fill: #fff"/>
  <path d="M385.98,110.56c-.29,4.54-.43,6.81-.72,11.34-10.7-2.86-16.09-4.1-26.91-6.24v-1.95c.39.05,1,.09,1.7.15a4.70013,4.70013,0,0,0,1.54,0,1.62,1.62,0,0,0,1.06-.82,3.58008,3.58008,0,0,0,.33-1.68V83.54a4.85011,4.85011,0,0,0-.28-1.7,3.1,3.1,0,0,0-1.11-1.38,10.9203,10.9203,0,0,0-1.57-1,8.76022,8.76022,0,0,0-1.67-.7v-1.9c5.85,1.15,8.76,1.78,14.57,3.15v1.95a9.25952,9.25952,0,0,0-1.76-.14,11.14059,11.14059,0,0,0-1.56.08,1.41,1.41,0,0,0-1.13.87,4.00008,4.00008,0,0,0-.31,1.63v26a20.53043,20.53043,0,0,0,.16,2.84,3.31,3.31,0,0,0,.74,1.71,3.90984,3.90984,0,0,0,1.67,1,29.05741,29.05741,0,0,0,3.09.88c.6.14,1.22.27,1.87.39a13.99761,13.99761,0,0,0,1.84.23,7.90018,7.90018,0,0,0,1.56-.06,1.83,1.83,0,0,0,1.05-.46,17.421,17.421,0,0,0,2.3-3.22,21.61983,21.61983,0,0,0,1.83-3.67Z" transform="translate(-54.83119 -33.52)" style="fill: #fff"/>
  <path d="M412.71,118.73c-.28,4.51-.43,6.77-.71,11.29-10.53-3.58-15.85-5.2-26.55-8.06v-1.94l1.68.26a4.60992,4.60992,0,0,0,1.53.06,1.44,1.44,0,0,0,1-.75,3.41015,3.41015,0,0,0,.33-1.66V90.15a5.00031,5.00031,0,0,0-.28-1.72,3.46013,3.46013,0,0,0-1.09-1.45,11.37011,11.37011,0,0,0-1.56-1.07,9.38026,9.38026,0,0,0-1.65-.81V83.16c5.78,1.54,8.66,2.37,14.39,4.13v1.94a9.34852,9.34852,0,0,0-1.73-.25,10.6775,10.6775,0,0,0-1.55,0,1.26,1.26,0,0,0-1.11.79,4.08977,4.08977,0,0,0-.3,1.61v26.06a20.92045,20.92045,0,0,0,.15,2.84,3.68031,3.68031,0,0,0,.73,1.77,4.47019,4.47019,0,0,0,1.65,1.13,30.57842,30.57842,0,0,0,3.05,1.08c.59.18,1.2.35,1.84.52a14.71937,14.71937,0,0,0,1.81.35,7.39985,7.39985,0,0,0,1.54.05,1.66011,1.66011,0,0,0,1-.39,15.85039,15.85039,0,0,0,2.27-3.07,20.36008,20.36008,0,0,0,1.8-3.54Z" transform="translate(-54.83119 -33.52)" style="fill: #fff"/>
  <path d="M165.25,158.8a2.3,2.3,0,0,1,.82.91,2.88,2.88,0,0,1,.26,1.32,4.69005,4.69005,0,0,1-1.72,3.47,9.13007,9.13007,0,0,1-4.26,2.19,9.9,9.9,0,0,1-2.35.26,9.61022,9.61022,0,0,1-2-.23l-.53.85-1,.24c-.07-1.92-.1-2.88-.17-4.8l1-.24a6.44967,6.44967,0,0,0,.72,1.44,3.90008,3.90008,0,0,0,1.09,1.09,3.82991,3.82991,0,0,0,1.5.58,5,5,0,0,0,2-.12,6.34006,6.34006,0,0,0,1.49-.52,3.99955,3.99955,0,0,0,1-.74,2.90022,2.90022,0,0,0,.59-.91,3.00018,3.00018,0,0,0,.19-1.06,2,2,0,0,0-.6-1.45,2.72,2.72,0,0,0-1.76-.71c-.54,0-1.15-.1-1.85-.14s-1.28-.11-1.79-.17a4.51,4.51,0,0,1-2.3-.86,2.52,2.52,0,0,1-.82-2.08,3.49006,3.49006,0,0,1,.41-1.6,6.00033,6.00033,0,0,1,1.18-1.56,7.77034,7.77034,0,0,1,1.69-1.21,8.00015,8.00015,0,0,1,2-.77,6.79981,6.79981,0,0,1,2.17-.2,8.99934,8.99934,0,0,1,1.75.3l.5-.8,1-.22.1,4.67-1,.23a13.00117,13.00117,0,0,0-.61-1.41,3.66014,3.66014,0,0,0-.89-1.13,2.79008,2.79008,0,0,0-1.29-.63,4.39972,4.39972,0,0,0-1.88.09,4.08,4.08,0,0,0-2,1.08,2.33,2.33,0,0,0-.83,1.68,1.77,1.77,0,0,0,.53,1.39,2.87993,2.87993,0,0,0,1.54.63c.6.09,1.2.15,1.78.19s1.14.09,1.68.16a10.64935,10.64935,0,0,1,1.43.26A4.09013,4.09013,0,0,1,165.25,158.8Z" transform="translate(-54.83119 -33.52)" style="fill: #1d1d1b"/>
  <path d="M180.53,151.46a4.14,4.14,0,0,1-.54,2.06,5.86,5.86,0,0,1-1.5,1.7,8.99985,8.99985,0,0,1-2.07,1.23,12.32872,12.32872,0,0,1-2.39.75l-2,.41v4.28a1,1,0,0,0,.14.58.71.71,0,0,0,.59.28,3.77124,3.77124,0,0,0,.78,0,4.5403,4.5403,0,0,0,1-.14v.7c-3,.62-4.53.94-7.54,1.6v-.7l.86-.26a5.38011,5.38011,0,0,0,.78-.3,1.39,1.39,0,0,0,.54-.5,1.31006,1.31006,0,0,0,.17-.67v-10.2a1.2599,1.2599,0,0,0-.13-.6.66.66,0,0,0-.58-.3,5.77986,5.77986,0,0,0-.93,0l-.8.1v-.7c3.21-.71,4.81-1.05,8-1.7a6.75,6.75,0,0,1,4,.15A2.28,2.28,0,0,1,180.53,151.46Zm-3.78,3.15a3.1,3.1,0,0,0,.56-1.1,4.00023,4.00023,0,0,0,.14-1,3.90037,3.90037,0,0,0-.17-1.12,1.87,1.87,0,0,0-.57-.91,2.21011,2.21011,0,0,0-1.15-.5,4.99977,4.99977,0,0,0-1.76.1l-1.74.36v6.25l1.26-.26a7.34992,7.34992,0,0,0,2.18-.78A4.42974,4.42974,0,0,0,176.75,154.61Z" transform="translate(-54.83119 -33.52)" style="fill: #1d1d1b"/>
  <path d="M195.32,146.96a5.4898,5.4898,0,0,1,1.83,2.05,6.32,6.32,0,0,1,.7,2.95,7.59,7.59,0,0,1-.68,3.17,8.50036,8.50036,0,0,1-1.86,2.64,10.78032,10.78032,0,0,1-2.69,1.93,11.47033,11.47033,0,0,1-3.26,1.08,9.76968,9.76968,0,0,1-3.4.06,6.78985,6.78985,0,0,1-2.67-1,5.39006,5.39006,0,0,1-1.76-2,6.11006,6.11006,0,0,1-.68-2.88,7.58,7.58,0,0,1,.67-3.2,9.57015,9.57015,0,0,1,1.85-2.69,10.48966,10.48966,0,0,1,2.72-2,11.13035,11.13035,0,0,1,3.23-1.1,9.73016,9.73016,0,0,1,3.31-.05A6.84986,6.84986,0,0,1,195.32,146.96Zm-1.86,10.33a7.39,7.39,0,0,0,1-2.23,10.21006,10.21006,0,0,0,.31-2.61,8.77012,8.77012,0,0,0-.35-2.61,4.82977,4.82977,0,0,0-1-1.9,3.67,3.67,0,0,0-1.72-1,5.4201,5.4201,0,0,0-2.36-.06,6,6,0,0,0-4.23,2.78,7.34039,7.34039,0,0,0-.93,2.22,10.74018,10.74018,0,0,0-.3,2.53,8.79032,8.79032,0,0,0,.32,2.53,4.66991,4.66991,0,0,0,1,1.86,3.64,3.64,0,0,0,1.69,1.07,5.28971,5.28971,0,0,0,2.43.05,6.44,6.44,0,0,0,2.4-.91,5.99989,5.99989,0,0,0,1.74-1.68Z" transform="translate(-54.83119 -33.52)" style="fill: #1d1d1b"/>
  <path d="M215.77,156.48c-1.91.24-2.86.36-4.77.62-1.05-1.18-2-2.19-2.86-3s-1.77-1.7-2.77-2.58l-1.81.27v4.48a1.20005,1.20005,0,0,0,.14.59.78.78,0,0,0,.59.32,4.49917,4.49917,0,0,0,.78,0,3.87091,3.87091,0,0,0,.95-.07v.71c-3,.43-4.49.66-7.48,1.13v-.7l.87-.21a4.36973,4.36973,0,0,0,.79-.25,1.15,1.15,0,0,0,.71-1.13V146.42a1.25978,1.25978,0,0,0-.13-.6.74.74,0,0,0-.58-.32,6.2874,6.2874,0,0,0-.81,0,7.00352,7.00352,0,0,0-.85,0v-.71c3.27-.52,4.9-.77,8.16-1.24a11.90049,11.90049,0,0,1,2.11-.11,5.73981,5.73981,0,0,1,1.78.35,2.73992,2.73992,0,0,1,1.24.87,2.31,2.31,0,0,1,.46,1.49,3.48991,3.48991,0,0,1-.31,1.49,3.89,3.89,0,0,1-.93,1.21,7,7,0,0,1-1.34.92,14.87235,14.87235,0,0,1-1.74.78c.88.8,1.6,1.47,2.18,2l2.13,2a4.15006,4.15006,0,0,0,1,.75,4.61039,4.61039,0,0,0,.88.35,3.07019,3.07019,0,0,0,.81.09,6.69,6.69,0,0,0,.81,0Zm-6.56-9.67a2.14,2.14,0,0,0-.92-1.9,3.65994,3.65994,0,0,0-2.61-.38l-2.12.31v6.06l1.63-.24a5.32,5.32,0,0,0,2.87-1.29A3.32,3.32,0,0,0,209.21,146.81Z" transform="translate(-54.83119 -33.52)" style="fill: #1d1d1b"/>
  <path d="M229.39,144.63l-.86.08a3.84,3.84,0,0,0-.41-.81,7.83947,7.83947,0,0,0-.66-.86,3.91021,3.91021,0,0,0-.82-.71,1.62008,1.62008,0,0,0-.86-.31,7.936,7.936,0,0,0-1,.05l-1.09.1-.73.08v11.31a.91.91,0,0,0,.79.94,7.292,7.292,0,0,0,.94.08,8.52863,8.52863,0,0,0,1.12,0v.71c-3.35.36-5,.55-8.37,1v-.7l1.07-.21a5.6198,5.6198,0,0,0,1-.27,1.46988,1.46988,0,0,0,.61-.45,1.11,1.11,0,0,0,.19-.67V142.56l-.72.09-1,.13c-.39.05-.75.12-1.1.2a1.91011,1.91011,0,0,0-.86.49,7.931,7.931,0,0,0-.82.91,8.15112,8.15112,0,0,0-.66,1,6.6498,6.6498,0,0,0-.4.89l-.87.11v-3.83c6.17-.81,9.26-1.16,15.45-1.79Z" transform="translate(-54.83119 -33.52)" style="fill: #1d1d1b"/>
  <path d="M246.52,153.81a9.3402,9.3402,0,0,1-3.05-.28,7.36024,7.36024,0,0,1-2.58-1.24,6.29993,6.29993,0,0,1-1.78-2.14,6.49015,6.49015,0,0,1-.66-3,7.56032,7.56032,0,0,1,.65-3.13,7.76,7.76,0,0,1,1.8-2.52,9.00052,9.00052,0,0,1,2.69-1.74,10.39979,10.39979,0,0,1,3.31-.77,9.61972,9.61972,0,0,1,2.38.1,9.9,9.9,0,0,1,2,.6l.57-.73,1-.06.11,5-1,.06a10.79993,10.79993,0,0,0-.6-1.57,5.9003,5.9003,0,0,0-.94-1.4,4.00017,4.00017,0,0,0-1.43-1,4.35994,4.35994,0,0,0-1.88-.26,6.29,6.29,0,0,0-2.26.59,5.62027,5.62027,0,0,0-1.81,1.4,6.40075,6.40075,0,0,0-1.19,2.24,9.32937,9.32937,0,0,0-.41,2.82,6.80973,6.80973,0,0,0,.43,2.45,5.55982,5.55982,0,0,0,1.23,1.9,5.3,5.3,0,0,0,1.9,1.18,5.84,5.84,0,0,0,2.44.31,6.81958,6.81958,0,0,0,1.87-.38,5.8,5.8,0,0,0,3.35-3.09l.94.31a7.17,7.17,0,0,1-2.86,3.17A9.79007,9.79007,0,0,1,246.52,153.81Z" transform="translate(-54.83119 -33.52)" style="fill: #1d1d1b"/>
  <path d="M267.95,148.21c-.15,1.68-.23,2.53-.38,4.21-5.56.17-8.34.29-13.89.6v-.71l.87-.11a4.10873,4.10873,0,0,0,.79-.18,1,1,0,0,0,.72-1.05V140.85a1.13,1.13,0,0,0-.15-.59.94011.94011,0,0,0-.57-.39,6.19835,6.19835,0,0,0-.81-.19,5.1215,5.1215,0,0,0-.85-.09v-.7c3-.17,4.5-.25,7.5-.37v.7a5.82279,5.82279,0,0,0-.91.14,7.88068,7.88068,0,0,0-.81.2.9999.9999,0,0,0-.58.43,1.4,1.4,0,0,0-.16.63v9.49a4.4395,4.4395,0,0,0,.09,1,.77006.77006,0,0,0,.38.54,1.84,1.84,0,0,0,.86.2h1.59l1-.06a5.73805,5.73805,0,0,0,.95-.12,5.99929,5.99929,0,0,0,.81-.19,1.41975,1.41975,0,0,0,.54-.29,9.00159,9.00159,0,0,0,1.2-1.43,10.3194,10.3194,0,0,0,.95-1.54Z" transform="translate(-54.83119 -33.52)" style="fill: #1d1d1b"/>
  <path d="M285.66,138.75a7.3915,7.3915,0,0,0-1,.11,3.77963,3.77963,0,0,0-1.1.33,1.32005,1.32005,0,0,0-.59,1,8.00039,8.00039,0,0,0-.16,1.75v6.15a3.44991,3.44991,0,0,1-.62,2,4.8099,4.8099,0,0,1-1.62,1.44,7.99987,7.99987,0,0,1-2.08.79,10.57,10.57,0,0,1-2.1.26,11.39094,11.39094,0,0,1-2.86-.29,6.94,6.94,0,0,1-2.11-.86,3.91,3.91,0,0,1-1.26-1.27,2.99986,2.99986,0,0,1-.43-1.51v-8.36a1.11,1.11,0,0,0-.14-.58,1.19,1.19,0,0,0-.58-.42,3.41008,3.41008,0,0,0-.81-.2,7.38847,7.38847,0,0,0-.8-.08v-.71c3-.09,4.45-.12,7.41-.18v.71a11.22108,11.22108,0,0,0-1.67.27.91.91,0,0,0-.57.41,1.39991,1.39991,0,0,0-.14.61v7.84a5.00019,5.00019,0,0,0,.15,1.18,2.88014,2.88014,0,0,0,.62,1.15,3.41988,3.41988,0,0,0,1.33.87,6.13,6.13,0,0,0,2.31.31,6.65,6.65,0,0,0,2.31-.37,3.86986,3.86986,0,0,0,1.47-.93,3.07993,3.07993,0,0,0,.73-1.13,3.46038,3.46038,0,0,0,.21-1.18v-5.8a6.48,6.48,0,0,0-.2-1.8,1.46992,1.46992,0,0,0-.58-.92,4.14007,4.14007,0,0,0-1.2-.38,9.16132,9.16132,0,0,0-1.16-.15v-.7h7.27Z" transform="translate(-54.83119 -33.52)" style="fill: #1d1d1b"/>
  <path d="M298.21,145.77a4.25993,4.25993,0,0,1,1.29,1.13,2.74981,2.74981,0,0,1,.51,1.66,2.72,2.72,0,0,1-.54,1.7,4.21012,4.21012,0,0,1-1.4,1.16,7.08,7.08,0,0,1-1.9.65,9.87062,9.87062,0,0,1-2.19.19c-3.37-.06-5.05-.08-8.42-.09v-.7l.88-.08a6.13911,6.13911,0,0,0,.83-.15,1.23,1.23,0,0,0,.55-.37.99991.99991,0,0,0,.16-.61V140.1a1.32983,1.32983,0,0,0-.14-.6,1.09,1.09,0,0,0-.57-.42,4.00013,4.00013,0,0,0-.84-.23,5.54018,5.54018,0,0,0-.78-.1v-.71c3.28,0,4.92,0,8.21.09a10.69228,10.69228,0,0,1,1.82.18,6.00038,6.00038,0,0,1,1.66.57,3.55017,3.55017,0,0,1,1.22,1,2.31006,2.31006,0,0,1,.47,1.47,2.58989,2.58989,0,0,1-.33,1.32,3,3,0,0,1-1,1,5.78079,5.78079,0,0,1-1.32.64,9.48045,9.48045,0,0,1-1.61.39v.09a10.71938,10.71938,0,0,1,1.71.34A7.19989,7.19989,0,0,1,298.21,145.77Zm-3-2.2a2.35991,2.35991,0,0,0,.64-.93,3.53,3.53,0,0,0,.18-1.2,2.31994,2.31994,0,0,0-.8-1.85,4,4,0,0,0-2.52-.71h-2v5.44h1.59a6.07035,6.07035,0,0,0,1.75-.18,2.83994,2.83994,0,0,0,1.13-.57Zm1.74,4.55a2.55,2.55,0,0,0-1.06-2.08,4.92,4.92,0,0,0-3-.87h-2.18v5a1,1,0,0,0,.64,1,5.2,5.2,0,0,0,4.64-.47,3.14,3.14,0,0,0,.93-2.58Z" transform="translate(-54.83119 -33.52)" style="fill: #1d1d1b"/>
  <path d="M318.06,153.24c-3.2-.2-4.8-.29-8-.44v-.71h1a4.33037,4.33037,0,0,0,.91-.08,1.22006,1.22006,0,0,0,.6-.32.91989.91989,0,0,0,.18-.61V140.83a1.19982,1.19982,0,0,0-.13-.59,1.22,1.22,0,0,0-.65-.43,9.0664,9.0664,0,0,0-.95-.27,6.72863,6.72863,0,0,0-.93-.17v-.71c3.2.15,4.8.24,8,.44v.71h-.93a7.38778,7.38778,0,0,0-.94.11.85991.85991,0,0,0-.63.35,1.06981,1.06981,0,0,0-.17.59v10.23a1.00008,1.00008,0,0,0,.18.59,1.26,1.26,0,0,0,.62.44,6.81067,6.81067,0,0,0,.86.23,8.54,8.54,0,0,0,1,.16Z" transform="translate(-54.83119 -33.52)" style="fill: #1d1d1b"/>
  <path d="M333.24,144.11l-.86-.08a4.71948,4.71948,0,0,0-.41-.89,7.40986,7.40986,0,0,0-.66-1,5.66009,5.66009,0,0,0-.82-.87,1.90005,1.90005,0,0,0-.86-.47c-.25,0-.58-.09-1-.14s-.76-.08-1.1-.11l-.72-.06V151.8a1.23,1.23,0,0,0,.17.62,1.24994,1.24994,0,0,0,.62.47,12.36027,12.36027,0,0,0,2.06.49v.71c-3.35-.29-5-.42-8.39-.65v-.7h1.08a4.29957,4.29957,0,0,0,1-.08,1.06006,1.06006,0,0,0,.61-.33.93.93,0,0,0,.19-.63V140.3l-.72-.05-1-.06h-1.1a1.6,1.6,0,0,0-.86.33,5.78978,5.78978,0,0,0-.82.75,5.85949,5.85949,0,0,0-.66.91,4.25019,4.25019,0,0,0-.4.81l-.88-.06V139.1c6.2.38,9.29.62,15.48,1.18Z" transform="translate(-54.83119 -33.52)" style="fill: #1d1d1b"/>
  <path d="M347.12,151.44c-.24,1.73-.35,2.6-.59,4.34-5.69-.66-8.54-.95-14.25-1.46v-.36c4.47-4.8,6.7-7.18,11.17-11.89l-4.09-.43c-.48-.05-.87-.08-1.2-.1a8.762,8.762,0,0,0-.88,0,3.34013,3.34013,0,0,0-1.85.91,6.13,6.13,0,0,0-1.56,1.87l-.87-.08c.21-1.57.32-2.36.53-3.94,5.32.48,8,.76,13.29,1.38v.35c-4.46,4.68-6.69,7-11.16,11.82l4.21.41a20.16894,20.16894,0,0,0,2.26.12,3.23,3.23,0,0,0,1.57-.23,7.59047,7.59047,0,0,0,1.51-1.35,7.67952,7.67952,0,0,0,1-1.47Z" transform="translate(-54.83119 -33.52)" style="fill: #1d1d1b"/>
  <path d="M361.97,153.63c-.14,1.64-.2,2.47-.34,4.11-5.87-.84-8.81-1.23-14.7-1.91v-.71h1a3.14,3.14,0,0,0,.81,0,.9.9,0,0,0,.56-.32,1,1,0,0,0,.16-.59V144.04a1.33,1.33,0,0,0-.14-.6,1.2,1.2,0,0,0-.58-.48,6.45015,6.45015,0,0,0-.9-.34,8.77335,8.77335,0,0,0-.91-.22v-.71c5.49.64,8.23,1,13.7,1.77v3.41l-.93-.13a5.3299,5.3299,0,0,0-1.08-1.76,3.21,3.21,0,0,0-1.58-1.15c-.26-.06-.56-.12-.92-.18l-1.22-.19-2.79-.35v5.62l2,.25a4.87977,4.87977,0,0,0,1.4,0,1.5501,1.5501,0,0,0,.78-.38,1.82986,1.82986,0,0,0,.47-.71,3.41978,3.41978,0,0,0,.26-.87l.93.12v5.54l-.93-.13a4.57091,4.57091,0,0,0-.27-1,2.88012,2.88012,0,0,0-.46-.84,2.11987,2.11987,0,0,0-.88-.62,6.04986,6.04986,0,0,0-1.3-.29l-2-.26v4.24a3.55965,3.55965,0,0,0,.12,1,1.11,1.11,0,0,0,.43.61,2.65027,2.65027,0,0,0,.89.36c.37.08.91.17,1.6.26l1.08.14q.67.09,1.14.12h1a1.52006,1.52006,0,0,0,.71-.19,5.19975,5.19975,0,0,0,1.21-1.28,7.57989,7.57989,0,0,0,.8-1.31Z" transform="translate(-54.83119 -33.52)" style="fill: #1d1d1b"/>
  <path d="M380.58,160.81c-2.93-.53-4.4-.78-7.33-1.27v-.7l.87.08a2.8801,2.8801,0,0,0,.78,0,.8.8,0,0,0,.54-.27.9.9,0,0,0,.18-.6v-5c-3.32-.57-5-.84-8.3-1.35v4.92a1.22006,1.22006,0,0,0,.14.61,1.49,1.49,0,0,0,.56.51,4.55115,4.55115,0,0,0,.76.29,7.00318,7.00318,0,0,0,.85.24v.69c-2.93-.47-4.4-.7-7.34-1.12v-.71l.87.07a3.05935,3.05935,0,0,0,.78,0,.85988.85988,0,0,0,.55-.28,1.00021,1.00021,0,0,0,.17-.61v-10.2a1.17,1.17,0,0,0-.16-.6,1.31987,1.31987,0,0,0-.56-.5,5.44854,5.44854,0,0,0-.82-.35,6.99924,6.99924,0,0,0-.83-.24v-.71c2.94.43,4.41.65,7.34,1.12v.71a6.70044,6.70044,0,0,0-.85,0,6.99639,6.99639,0,0,0-.76,0,.69.69,0,0,0-.56.31,1.15,1.15,0,0,0-.14.59v4.38c3.32.52,5,.79,8.3,1.35v-4.31a1.32017,1.32017,0,0,0-.16-.61,1.34,1.34,0,0,0-.56-.51,7.257,7.257,0,0,0-.82-.37,5.67092,5.67092,0,0,0-.83-.25v-.71c2.93.48,4.4.74,7.33,1.26v.71a4.50213,4.50213,0,0,1-.85-.06,5.43944,5.43944,0,0,0-.76,0,.64.64,0,0,0-.56.29,1.15024,1.15024,0,0,0-.14.59v10.19a1.22006,1.22006,0,0,0,.14.61,1.43015,1.43015,0,0,0,.56.52,4.68866,4.68866,0,0,0,.76.31,5.82866,5.82866,0,0,0,.85.25Z" transform="translate(-54.83119 -33.52)" style="fill: #1d1d1b"/>
  <path d="M395.85,151.31a9.2599,9.2599,0,0,1,1.83,2.74,8.08971,8.08971,0,0,1,.65,3.19,6.00017,6.00017,0,0,1-.67,2.92,5.05,5.05,0,0,1-1.86,2,6.82,6.82,0,0,1-2.67.92,9.99962,9.99962,0,0,1-3.25-.13,11.51,11.51,0,0,1-3.39-1.22,10.60965,10.60965,0,0,1-2.68-2,8.99977,8.99977,0,0,1-1.76-2.67,7.85983,7.85983,0,0,1-.64-3.07,6.15,6.15,0,0,1,.67-2.95,5.6299,5.6299,0,0,1,1.85-2,6.80012,6.80012,0,0,1,2.72-1,9.57029,9.57029,0,0,1,3.23.11,11.75035,11.75035,0,0,1,3.3,1.19A11.00016,11.00016,0,0,1,395.85,151.31Zm-1.89,9.65a4.7703,4.7703,0,0,0,1-1.84,8.99989,8.99989,0,0,0,.31-2.5,10.13993,10.13993,0,0,0-.35-2.74,7.48023,7.48023,0,0,0-1-2.29,6.29,6.29,0,0,0-4.07-2.63,4.94,4.94,0,0,0-2.53.05,3.64,3.64,0,0,0-1.7,1.14,5.10009,5.10009,0,0,0-.93,1.88,9.30063,9.30063,0,0,0-.3,2.41,10.66011,10.66011,0,0,0,.32,2.66,7.57963,7.57963,0,0,0,1,2.24,6.17975,6.17975,0,0,0,1.69,1.69,6.63038,6.63038,0,0,0,2.43,1,5.18008,5.18008,0,0,0,2.39,0A3.50005,3.50005,0,0,0,393.96,160.96Z" transform="translate(-54.83119 -33.52)" style="fill: #1d1d1b"/>
  <path d="M413.76,163.68c-.13,1.63-.2,2.45-.33,4.08-5.82-1.41-8.73-2.08-14.56-3.34v-.7l1,.13a4.35928,4.35928,0,0,0,.8,0,.82008.82008,0,0,0,.55-.27.91.91,0,0,0,.16-.58V152.88a1.39975,1.39975,0,0,0-.14-.61,1.36006,1.36006,0,0,0-.57-.54,6.55977,6.55977,0,0,0-.9-.42c-.37-.15-.67-.25-.89-.32v-.7c5.44,1.17,8.15,1.79,13.57,3.1v3.4l-.92-.22a6.21,6.21,0,0,0-1.07-1.86,3.67994,3.67994,0,0,0-1.57-1.3c-.25-.09-.56-.18-.91-.28l-1.21-.3-2.76-.63v5.62l2,.45a4.73953,4.73953,0,0,0,1.39.18,1.39,1.39,0,0,0,.77-.31,1.71983,1.71983,0,0,0,.47-.66,3.6909,3.6909,0,0,0,.25-.85l.93.22v5.54l-.93-.22a4.0599,4.0599,0,0,0-.27-1.08,2.88976,2.88976,0,0,0-.45-.87,2.34009,2.34009,0,0,0-.87-.71,5.72983,5.72983,0,0,0-1.29-.42l-2-.45v4.24a4.14923,4.14923,0,0,0,.11,1,1.26994,1.26994,0,0,0,.44.65,2.52011,2.52011,0,0,0,.87.44c.38.13.9.26,1.59.42l1.07.25c.45.11.82.18,1.13.23a7.5071,7.5071,0,0,0,1,.08,1.3101,1.3101,0,0,0,.71-.12,4.54009,4.54009,0,0,0,1.19-1.16,6.43048,6.43048,0,0,0,.79-1.24Z" transform="translate(-54.83119 -33.52)" style="fill: #1d1d1b"/>
  <polygon points="59.929 164.1 69.559 141.61 37.069 135.44 72.389 123.22 86.569 145.61 100.569 142.11 104.939 149.38 59.929 164.1" style="fill: #f6f6f6"/>
  <polygon points="392.819 164.1 383.189 141.61 415.679 135.44 380.359 123.22 366.179 145.61 352.179 142.11 347.809 149.38 392.819 164.1" style="fill: #f6f6f6"/>
  <polygon points="104.939 149.38 86.829 145.58 103.589 141.77 104.939 149.38" style="fill: #1d1d1b"/>
  <polygon points="347.809 149.38 365.919 145.58 349.169 141.77 347.809 149.38" style="fill: #1d1d1b"/>
</svg>
