<?xml version="1.0" encoding="UTF-8" standalone="no"?><!-- Generator: Gravit.io --><svg xmlns="http://www.w3.org/2000/svg" xmlns:xlink="http://www.w3.org/1999/xlink" style="isolation:isolate" viewBox="0 0 220 227" width="220pt" height="227pt"><defs><clipPath id="_clipPath_3L3fgQT8rzcqXcWjLUz4yv90Plk18UZa"><rect width="220" height="227"/></clipPath></defs><g clip-path="url(#_clipPath_3L3fgQT8rzcqXcWjLUz4yv90Plk18UZa)"><g><radialGradient id="_rgradient_4" fx="0.7456945468546078" fy="0.26498856347028676" cx="0.5" cy="0.5" r="0.5" gradientTransform="matrix(248.934,-120.493,-426.952,-95.353,145.03,153.165)" gradientUnits="userSpaceOnUse"><stop offset="0%" stop-opacity="1" style="stop-color:rgb(235,235,235)"/><stop offset="91.66666666666666%" stop-opacity="1" style="stop-color:rgb(255,255,255)"/><stop offset="100%" stop-opacity="1" style="stop-color:rgb(72,82,105)"/><stop offset="100%" stop-opacity="1" style="stop-color:rgb(11,24,56)"/></radialGradient><circle vector-effect="non-scaling-stroke" cx="109.99999999999979" cy="113.50000000000001" r="109.9999999999998" fill="url(#_rgradient_4)"/><path d=" M 63.29 196.269 C 59.586 199.998 51.088 197.665 44.315 190.968 C 37.516 184.271 35.03 175.798 38.759 172.069 C 42.463 168.289 50.961 170.674 57.759 177.371 C 64.533 184.068 66.993 192.515 63.29 196.269 Z  M 23.945 113.064 C 23.945 104.566 20.368 97.666 15.954 97.666 C 11.591 97.666 7.989 104.566 7.989 113.064 C 7.989 121.562 11.591 128.437 15.954 128.437 C 20.368 128.437 23.945 121.562 23.945 113.064 Z  M 56.567 40.996 C 53.396 36.835 44.34 38.408 36.273 44.547 C 28.232 50.661 24.224 58.956 27.395 63.116 C 30.566 67.276 39.673 65.678 47.714 59.565 C 55.781 53.476 59.738 45.131 56.567 40.996 Z  M 117.221 14.639 C 117.018 11.849 109.966 10.098 101.493 10.732 C 93.02 11.367 86.272 14.157 86.501 16.947 C 86.729 19.738 93.781 21.488 102.254 20.854 C 110.727 20.22 117.449 17.429 117.221 14.639 Z  M 159.787 31.889 C 161.335 28.743 169.325 29.53 177.595 33.665 C 185.916 37.774 191.37 43.634 189.822 46.779 C 188.224 49.9 180.284 49.113 171.963 44.978 C 163.694 40.844 158.24 34.984 159.787 31.889 Z  M 200.324 104.744 C 200.578 96.55 203.394 89.98 206.59 90.056 C 209.812 90.158 212.247 96.905 211.993 105.099 C 211.74 113.293 208.898 119.888 205.677 119.736 C 202.455 119.66 200.071 112.938 200.324 104.744 Z  M 187.387 169.963 C 191.649 162.962 191.877 155.326 187.843 152.891 C 183.861 150.431 177.138 154.16 172.851 161.136 C 168.564 168.137 168.361 175.798 172.369 178.259 C 176.377 180.694 183.1 176.99 187.387 169.963 M 142.943 197.005 C 142.004 191.526 133.354 188.456 123.664 190.156 C 113.999 191.83 106.896 197.589 107.835 203.093 C 108.799 208.522 117.423 211.617 127.114 209.942 C 136.804 208.243 143.907 202.484 142.943 197.005 Z  M 158.874 121.004 C 158.874 112.811 151.948 106.139 143.45 106.139 C 134.952 106.139 128.052 112.811 128.052 121.004 C 128.052 129.198 134.952 135.87 143.45 135.87 C 151.948 135.87 158.874 129.198 158.874 121.004 Z  M 86.602 126.306 C 86.602 117.529 80.894 110.401 73.842 110.401 C 66.816 110.401 61.108 117.529 61.108 126.306 C 61.108 135.109 66.816 142.237 73.842 142.237 C 80.894 142.237 86.602 135.109 86.602 126.306 Z  M 126.962 60.047 C 125.82 53.121 117.779 48.657 109.001 50.128 C 100.174 51.549 93.984 58.322 95.126 65.272 C 96.267 72.223 104.334 76.662 113.111 75.242 C 121.939 73.77 128.103 66.972 126.962 60.047 Z " fill="rgb(0,0,0)" fill-opacity="0.7"/></g></g></svg>